<svg width="478" height="392" viewBox="0 0 478 392" fill="none" xmlns="http://www.w3.org/2000/svg">
<g filter="url(#filter0_bd_874_27093)">
<rect width="437.333" height="352" rx="24" transform="matrix(-1 0 0 1 457.833 10)" fill="#D2D2D2" fill-opacity="0.2" style="mix-blend-mode:luminosity" shape-rendering="crispEdges"/>
<rect width="437.333" height="352" rx="24" transform="matrix(-1 0 0 1 457.833 10)" fill="#C96346" fill-opacity="0.45" style="mix-blend-mode:multiply" shape-rendering="crispEdges"/>
<rect width="437.333" height="352" rx="24" transform="matrix(-1 0 0 1 457.833 10)" fill="url(#paint0_radial_874_27093)" fill-opacity="0.8" style="mix-blend-mode:soft-light" shape-rendering="crispEdges"/>
<rect x="-0.75" y="0.75" width="435.833" height="350.5" rx="23.25" transform="matrix(-1 0 0 1 456.333 10)" stroke="url(#paint1_linear_874_27093)" stroke-width="1.5" shape-rendering="crispEdges"/>
<g clip-path="url(#clip0_874_27093)">
<rect width="355" height="285" rx="24" transform="matrix(-1 0 0 1 416.666 43.5)" fill="#ACACAC" fill-opacity="0.2" style="mix-blend-mode:luminosity"/>
<rect width="355" height="285" rx="24" transform="matrix(-1 0 0 1 416.666 43.5)" fill="#D5D5D5" fill-opacity="0.3" style="mix-blend-mode:multiply"/>
<rect width="355" height="285" rx="24" transform="matrix(-1 0 0 1 416.666 43.5)" fill="url(#paint2_radial_874_27093)" fill-opacity="0.25" style="mix-blend-mode:overlay"/>
<path d="M304.465 87.38C303.585 87.38 302.759 87.2867 301.985 87.1C301.212 86.9133 300.532 86.6267 299.945 86.24C299.372 85.8533 298.919 85.3533 298.585 84.74C298.265 84.1267 298.105 83.4 298.105 82.56C298.105 81.6933 298.285 80.9267 298.645 80.26C299.005 79.6067 299.465 79.0333 300.025 78.54C300.585 78.0333 301.179 77.58 301.805 77.18C302.445 76.7667 303.045 76.3733 303.605 76C304.165 75.6267 304.625 75.2467 304.985 74.86C305.345 74.46 305.525 74.02 305.525 73.54C305.525 73.3667 305.479 73.2067 305.385 73.06C305.305 72.9 305.165 72.7733 304.965 72.68C304.779 72.5733 304.512 72.52 304.165 72.52C303.939 72.52 303.705 72.5467 303.465 72.6C303.225 72.64 302.992 72.7 302.765 72.78C302.539 72.8467 302.325 72.9333 302.125 73.04C302.472 73.32 302.812 73.6333 303.145 73.98C303.492 74.3133 303.805 74.64 304.085 74.96C304.379 75.2667 304.605 75.5333 304.765 75.76C305.072 75.92 305.405 76.0667 305.765 76.2C306.125 76.32 306.505 76.4267 306.905 76.52C307.319 76.6133 307.745 76.6867 308.185 76.74C308.625 76.78 309.079 76.8 309.545 76.8C310.052 76.8 310.412 76.9333 310.625 77.2C310.839 77.4533 310.945 77.7733 310.945 78.16C310.945 78.5733 310.805 78.92 310.525 79.2C310.245 79.4667 309.852 79.6 309.345 79.6C308.239 79.6 307.292 79.52 306.505 79.36C305.732 79.2 305.032 78.96 304.405 78.64C303.792 78.3067 303.159 77.9 302.505 77.42C302.345 77.14 302.112 76.8333 301.805 76.5C301.499 76.1533 301.185 75.8267 300.865 75.52C300.559 75.2133 300.299 74.9733 300.085 74.8C300.045 74.76 299.979 74.6267 299.885 74.4C299.792 74.16 299.705 73.9067 299.625 73.64C299.559 73.3733 299.525 73.1867 299.525 73.08C299.525 72.8133 299.652 72.5133 299.905 72.18C300.159 71.8333 300.512 71.5067 300.965 71.2C301.432 70.88 301.972 70.62 302.585 70.42C303.199 70.2067 303.865 70.1 304.585 70.1C305.892 70.1 306.832 70.38 307.405 70.94C307.992 71.4867 308.285 72.1933 308.285 73.06C308.285 73.86 308.105 74.5733 307.745 75.2C307.399 75.8267 306.945 76.4 306.385 76.92C305.825 77.44 305.232 77.92 304.605 78.36C303.992 78.8 303.405 79.2267 302.845 79.64C302.285 80.0667 301.825 80.4933 301.465 80.92C301.119 81.36 300.945 81.8333 300.945 82.34C300.945 82.7667 301.052 83.12 301.265 83.4C301.492 83.6933 301.779 83.9267 302.125 84.1C302.472 84.2733 302.852 84.3933 303.265 84.46C303.692 84.54 304.105 84.58 304.505 84.58C304.919 84.58 305.345 84.5467 305.785 84.48C306.239 84.4133 306.705 84.3067 307.185 84.16C307.679 84.0267 308.185 83.8533 308.705 83.64L309.545 86.04C309.039 86.3067 308.499 86.54 307.925 86.74C307.352 86.9533 306.772 87.1133 306.185 87.22C305.599 87.3267 305.025 87.38 304.465 87.38ZM309.352 79.6L309.552 76.82C310.658 76.82 311.545 76.8133 312.212 76.8C312.892 76.7867 313.418 76.76 313.792 76.72C314.178 76.6667 314.465 76.6067 314.652 76.54C314.838 76.46 314.998 76.3733 315.132 76.28C315.292 76.16 315.425 76 315.532 75.8C315.652 75.5867 315.745 75.3067 315.812 74.96C315.878 74.6133 315.912 74.18 315.912 73.66C315.912 73.0067 315.852 72.46 315.732 72.02C315.625 71.5667 315.465 71.2267 315.252 71C315.052 70.7733 314.805 70.66 314.512 70.66C314.298 70.66 314.098 70.7333 313.912 70.88C313.725 71.0133 313.572 71.2 313.452 71.44C313.332 71.68 313.272 71.9533 313.272 72.26C313.272 72.4333 313.318 72.5867 313.412 72.72C313.505 72.8533 313.652 72.9533 313.852 73.02C314.052 73.0867 314.305 73.12 314.612 73.12C314.905 73.12 315.212 73.0867 315.532 73.02C315.865 72.94 316.172 72.8333 316.452 72.7L316.532 75.08C316.318 75.2267 316.072 75.36 315.792 75.48C315.512 75.6 315.212 75.6933 314.892 75.76C314.585 75.8133 314.272 75.84 313.952 75.84C313.245 75.84 312.632 75.7467 312.112 75.56C311.605 75.36 311.212 75.04 310.932 74.6C310.652 74.16 310.512 73.56 310.512 72.8C310.512 72.2133 310.612 71.6333 310.812 71.06C311.012 70.4733 311.298 69.9467 311.672 69.48C312.045 69 312.485 68.62 312.992 68.34C313.498 68.0467 314.058 67.9 314.672 67.9C315.578 67.9 316.325 68.1667 316.912 68.7C317.512 69.22 317.952 69.9267 318.232 70.82C318.525 71.7 318.672 72.68 318.672 73.76C318.672 74.7067 318.532 75.5333 318.252 76.24C317.972 76.9333 317.638 77.48 317.252 77.88C316.932 78.2133 316.565 78.4933 316.152 78.72C315.738 78.9467 315.232 79.1267 314.632 79.26C314.045 79.38 313.318 79.4667 312.452 79.52C311.598 79.5733 310.565 79.6 309.352 79.6ZM314.632 66.04C314.218 66.04 313.865 65.9 313.572 65.62C313.292 65.34 313.152 64.9933 313.152 64.58C313.152 64.1667 313.292 63.8133 313.572 63.52C313.865 63.2267 314.218 63.08 314.632 63.08C315.032 63.08 315.372 63.2267 315.652 63.52C315.945 63.8133 316.092 64.1667 316.092 64.58C316.092 64.9933 315.945 65.34 315.652 65.62C315.372 65.9 315.032 66.04 314.632 66.04ZM323.809 76.8C324.409 76.8 324.869 76.7467 325.189 76.64C325.509 76.5333 325.729 76.3933 325.849 76.22C325.969 76.0467 326.029 75.86 326.029 75.66C326.029 75.34 325.936 74.9667 325.749 74.54C325.576 74.1133 325.356 73.6667 325.089 73.2C324.823 72.7333 324.543 72.2867 324.249 71.86C323.969 71.4333 323.716 71.06 323.489 70.74L325.869 69.16C326.443 69.9333 326.936 70.7 327.349 71.46C327.763 72.2067 328.096 72.9 328.349 73.54C328.616 74.18 328.803 74.7267 328.909 75.18C329.016 75.6067 329.176 75.94 329.389 76.18C329.616 76.4067 329.876 76.5667 330.169 76.66C330.463 76.7533 330.756 76.8 331.049 76.8C331.556 76.8 331.916 76.9333 332.129 77.2C332.356 77.4533 332.469 77.7733 332.469 78.16C332.469 78.5733 332.329 78.92 332.049 79.2C331.783 79.4667 331.383 79.6 330.849 79.6C330.263 79.6 329.749 79.52 329.309 79.36C328.869 79.2 328.496 78.9467 328.189 78.6C327.883 78.2533 327.623 77.8133 327.409 77.28L328.629 77.54C328.523 77.9133 328.276 78.26 327.889 78.58C327.516 78.8867 327.016 79.14 326.389 79.34C325.776 79.5267 325.049 79.62 324.209 79.62C323.809 79.62 323.363 79.5867 322.869 79.52C322.389 79.4533 321.909 79.3533 321.429 79.22C320.963 79.0867 320.536 78.9133 320.149 78.7L321.129 76.16C321.623 76.3733 322.096 76.5333 322.549 76.64C323.016 76.7467 323.436 76.8 323.809 76.8ZM330.875 79.6L331.075 76.8C331.688 76.8 332.128 76.74 332.395 76.62C332.662 76.4867 332.822 76.2467 332.875 75.9C332.928 75.54 332.942 75.02 332.915 74.34L332.555 64.86H335.375L335.775 74.54C335.802 75.3133 335.768 76.0133 335.675 76.64C335.595 77.2533 335.388 77.78 335.055 78.22C334.735 78.66 334.235 79 333.555 79.24C332.888 79.48 331.995 79.6 330.875 79.6ZM338.413 79.5L337.993 64.86H340.793L341.213 79.5H338.413ZM354.988 81.94C354.574 81.94 354.221 81.8 353.928 81.52C353.648 81.24 353.508 80.8933 353.508 80.48C353.508 80.0667 353.648 79.7133 353.928 79.42C354.221 79.1267 354.574 78.98 354.988 78.98C355.388 78.98 355.728 79.1267 356.008 79.42C356.301 79.7133 356.448 80.0667 356.448 80.48C356.448 80.8933 356.301 81.24 356.008 81.52C355.728 81.8 355.388 81.94 354.988 81.94ZM354.548 87.38C353.534 87.38 352.588 87.2533 351.708 87C350.828 86.7467 350.061 86.3667 349.408 85.86C348.754 85.3533 348.241 84.7267 347.868 83.98C347.508 83.2333 347.328 82.3733 347.328 81.4C347.328 80.4933 347.468 79.6533 347.748 78.88C348.041 78.1067 348.441 77.4067 348.948 76.78C349.468 76.1533 350.081 75.5933 350.788 75.1C351.494 74.6067 352.268 74.1867 353.108 73.84C353.961 73.4933 354.854 73.22 355.788 73.02L355.828 73.38C355.508 73.2867 355.154 73.18 354.768 73.06C354.381 72.94 353.961 72.8267 353.508 72.72C353.068 72.6133 352.594 72.5267 352.088 72.46C351.594 72.38 351.074 72.34 350.528 72.34C350.048 72.34 349.594 72.3733 349.168 72.44C348.754 72.4933 348.388 72.56 348.068 72.64L347.648 69.92C348.034 69.8 348.448 69.7 348.888 69.62C349.341 69.54 349.808 69.5 350.288 69.5C351.008 69.5 351.674 69.5667 352.288 69.7C352.901 69.82 353.474 69.9733 354.008 70.16C354.554 70.3467 355.074 70.54 355.568 70.74C356.074 70.9267 356.568 71.0867 357.048 71.22C357.528 71.34 358.021 71.4 358.528 71.4H359.328L359.588 74.4C359.081 74.4 358.494 74.4667 357.828 74.6C357.174 74.7333 356.494 74.9267 355.788 75.18C355.081 75.4333 354.388 75.7467 353.708 76.12C353.041 76.4933 352.434 76.9267 351.888 77.42C351.354 77.9133 350.928 78.46 350.608 79.06C350.288 79.66 350.128 80.3133 350.128 81.02C350.128 81.66 350.248 82.2067 350.488 82.66C350.728 83.1133 351.061 83.48 351.488 83.76C351.914 84.04 352.408 84.2467 352.968 84.38C353.541 84.5133 354.154 84.58 354.808 84.58C355.541 84.58 356.281 84.5 357.028 84.34C357.788 84.18 358.548 83.9533 359.308 83.66L360.128 86.1C359.154 86.5533 358.188 86.88 357.228 87.08C356.268 87.28 355.374 87.38 354.548 87.38ZM361.438 78.7L362.418 76.16C362.912 76.3733 363.385 76.5333 363.838 76.64C364.292 76.7467 364.745 76.8 365.198 76.8C365.665 76.8 366.052 76.76 366.358 76.68C366.678 76.5867 366.918 76.4533 367.078 76.28C367.238 76.1067 367.318 75.9 367.318 75.66C367.318 75.4333 367.245 75.12 367.098 74.72C366.965 74.32 366.718 73.8 366.358 73.16C365.998 72.5067 365.472 71.7 364.778 70.74L367.158 69.16C367.798 70.0667 368.352 70.9533 368.818 71.82C369.285 72.6733 369.645 73.4733 369.898 74.22C370.165 74.9533 370.298 75.6 370.298 76.16C370.298 76.8533 370.112 77.46 369.738 77.98C369.378 78.4867 368.838 78.8867 368.118 79.18C367.412 79.4733 366.538 79.62 365.498 79.62C365.112 79.62 364.678 79.5867 364.198 79.52C363.718 79.4533 363.232 79.3533 362.738 79.22C362.258 79.0867 361.825 78.9133 361.438 78.7ZM365.218 67.64C364.805 67.64 364.452 67.5 364.158 67.22C363.878 66.94 363.738 66.5933 363.738 66.18C363.738 65.7667 363.878 65.4133 364.158 65.12C364.452 64.8267 364.805 64.68 365.218 64.68C365.618 64.68 365.958 64.8267 366.238 65.12C366.532 65.4133 366.678 65.7667 366.678 66.18C366.678 66.5933 366.532 66.94 366.238 67.22C365.958 67.5 365.618 67.64 365.218 67.64ZM372.21 84.1L371.63 81.3C372.577 81.18 373.404 81.0333 374.11 80.86C374.817 80.7 375.41 80.4733 375.89 80.18C376.37 79.8867 376.73 79.4867 376.97 78.98C377.21 78.46 377.33 77.7933 377.33 76.98C377.33 76.1933 377.21 75.5667 376.97 75.1C376.73 74.6333 376.41 74.4 376.01 74.4C375.73 74.4 375.497 74.5 375.31 74.7C375.124 74.8867 374.984 75.1133 374.89 75.38C374.81 75.6333 374.77 75.86 374.77 76.06C374.77 76.18 374.804 76.3067 374.87 76.44C374.937 76.5733 375.084 76.6867 375.31 76.78C375.537 76.8733 375.89 76.9267 376.37 76.94C376.864 76.9533 377.53 76.9067 378.37 76.8H381.73C382.237 76.8 382.597 76.9333 382.81 77.2C383.037 77.4533 383.15 77.7733 383.15 78.16C383.15 78.5733 383.01 78.92 382.73 79.2C382.45 79.4667 382.05 79.6 381.53 79.6H376.03C375.19 79.6 374.47 79.5 373.87 79.3C373.27 79.1 372.81 78.78 372.49 78.34C372.17 77.8867 372.01 77.2867 372.01 76.54C372.01 75.94 372.11 75.34 372.31 74.74C372.524 74.14 372.817 73.5933 373.19 73.1C373.564 72.5933 373.997 72.1933 374.49 71.9C374.997 71.5933 375.544 71.44 376.13 71.44C376.93 71.44 377.63 71.6867 378.23 72.18C378.83 72.6733 379.297 73.3267 379.63 74.14C379.977 74.9533 380.15 75.84 380.15 76.8C380.15 78.3067 379.83 79.5867 379.19 80.64C378.55 81.6933 377.637 82.5067 376.45 83.08C375.264 83.6667 373.85 84.0067 372.21 84.1ZM381.559 79.6L381.759 76.8C382.092 76.8 382.345 76.7333 382.519 76.6C382.692 76.4667 382.865 76.2333 383.039 75.9C383.212 75.5667 383.452 75.1133 383.759 74.54C384.092 73.9 384.439 73.3667 384.799 72.94C385.159 72.5 385.519 72.1533 385.879 71.9C386.252 71.6333 386.619 71.4467 386.979 71.34C387.352 71.22 387.719 71.16 388.079 71.16C388.572 71.16 389.032 71.2667 389.459 71.48C389.899 71.68 390.319 72.0333 390.719 72.54C391.119 73.0333 391.499 73.7133 391.859 74.58C392.112 75.18 392.365 75.64 392.619 75.96C392.872 76.28 393.132 76.5 393.399 76.62C393.679 76.74 393.959 76.8 394.239 76.8C394.745 76.8 395.105 76.9333 395.319 77.2C395.532 77.4533 395.639 77.7733 395.639 78.16C395.639 78.5733 395.499 78.92 395.219 79.2C394.939 79.4667 394.545 79.6 394.039 79.6C393.385 79.6 392.792 79.4933 392.259 79.28C391.725 79.0667 391.305 78.7467 390.999 78.32L391.579 77.88C391.459 78.16 391.279 78.4533 391.039 78.76C390.812 79.0667 390.512 79.3267 390.139 79.54C389.779 79.7533 389.345 79.86 388.839 79.86C388.505 79.86 388.112 79.7933 387.659 79.66C387.219 79.54 386.759 79.3333 386.279 79.04C385.812 78.7333 385.379 78.32 384.979 77.8C384.725 78.2667 384.445 78.6333 384.139 78.9C383.832 79.1533 383.472 79.3333 383.059 79.44C382.645 79.5467 382.145 79.6 381.559 79.6ZM386.139 75.44C386.272 75.64 386.432 75.84 386.619 76.04C386.805 76.24 387.012 76.42 387.239 76.58C387.465 76.7267 387.705 76.8467 387.959 76.94C388.225 77.0333 388.485 77.08 388.739 77.08C389.005 77.08 389.225 76.98 389.399 76.78C389.572 76.5667 389.579 76.2533 389.419 75.84C389.352 75.6667 389.259 75.4733 389.139 75.26C389.032 75.0333 388.905 74.82 388.759 74.62C388.625 74.42 388.472 74.2533 388.299 74.12C388.139 73.9867 387.972 73.92 387.799 73.92C387.625 73.92 387.445 73.9733 387.259 74.08C387.072 74.1867 386.885 74.3533 386.699 74.58C386.512 74.7933 386.325 75.08 386.139 75.44ZM394.039 79.6L394.239 76.8C394.826 76.8 395.286 76.76 395.619 76.68C395.966 76.6 396.212 76.4533 396.359 76.24C396.506 76.0133 396.579 75.6933 396.579 75.28C396.579 74.9067 396.526 74.46 396.419 73.94C396.326 73.42 396.199 72.88 396.039 72.32C395.879 71.76 395.719 71.2467 395.559 70.78L398.319 70.02C398.479 70.4733 398.639 71 398.799 71.6C398.959 72.2 399.092 72.82 399.199 73.46C399.319 74.0867 399.379 74.6933 399.379 75.28C399.379 76.0133 399.286 76.6333 399.099 77.14C398.912 77.6333 398.652 78.0467 398.319 78.38C397.999 78.7 397.612 78.9533 397.159 79.14C396.719 79.3133 396.232 79.4333 395.699 79.5C395.166 79.5667 394.612 79.6 394.039 79.6ZM396.919 68.36C396.506 68.36 396.152 68.22 395.859 67.94C395.579 67.66 395.439 67.3133 395.439 66.9C395.439 66.4867 395.579 66.1333 395.859 65.84C396.152 65.5467 396.506 65.4 396.919 65.4C397.319 65.4 397.659 65.5467 397.939 65.84C398.232 66.1333 398.379 66.4867 398.379 66.9C398.379 67.3133 398.232 67.66 397.939 67.94C397.659 68.22 397.319 68.36 396.919 68.36Z" fill="white"/>
<path d="M90.9785 64.9141C90.9785 65.2622 90.8402 65.596 90.5941 65.8421C90.348 66.0883 90.0141 66.2266 89.666 66.2266C89.3179 66.2266 88.9841 66.0883 88.7379 65.8421C88.4918 65.596 88.3535 65.2622 88.3535 64.9141C88.3535 64.566 88.4918 64.2321 88.7379 63.986C88.9841 63.7398 89.3179 63.6016 89.666 63.6016C90.0141 63.6016 90.348 63.7398 90.5941 63.986C90.8402 64.2321 90.9785 64.566 90.9785 64.9141ZM90.9785 71.4766C90.9785 71.8247 90.8402 72.1585 90.5941 72.4046C90.348 72.6508 90.0141 72.7891 89.666 72.7891C89.3179 72.7891 88.9841 72.6508 88.7379 72.4046C88.4918 72.1585 88.3535 71.8247 88.3535 71.4766C88.3535 71.1285 88.4918 70.7946 88.7379 70.5485C88.9841 70.3023 89.3179 70.1641 89.666 70.1641C90.0141 70.1641 90.348 70.3023 90.5941 70.5485C90.8402 70.7946 90.9785 71.1285 90.9785 71.4766ZM90.9785 78.0391C90.9785 78.3872 90.8402 78.721 90.5941 78.9671C90.348 79.2133 90.0141 79.3516 89.666 79.3516C89.3179 79.3516 88.9841 79.2133 88.7379 78.9671C88.4918 78.721 88.3535 78.3872 88.3535 78.0391C88.3535 77.691 88.4918 77.3571 88.7379 77.111C88.9841 76.8648 89.3179 76.7266 89.666 76.7266C90.0141 76.7266 90.348 76.8648 90.5941 77.111C90.8402 77.3571 90.9785 77.691 90.9785 78.0391Z" fill="white"/>
<g filter="url(#filter1_d_874_27093)">
<g filter="url(#filter2_i_874_27093)">
<g clip-path="url(#clip1_874_27093)">
<rect width="323" height="48.4723" rx="8" transform="matrix(-0.978148 -0.207912 -0.207912 0.978148 400.666 252.246)" fill="#C96346"/>
<rect width="4" height="24" rx="2" transform="matrix(-0.978148 -0.207912 -0.207912 0.978148 386.384 261.721)" fill="#ECECEC"/>
<path d="M253.931 243.205L255.259 243.499L254.95 244.893L255.016 244.908C255.358 244.415 255.767 244.087 256.244 243.926C256.734 243.756 257.278 243.737 257.876 243.87C258.407 243.988 258.865 244.199 259.25 244.505C259.635 244.811 259.933 245.191 260.146 245.644C260.37 246.1 260.499 246.622 260.531 247.21C260.574 247.8 260.52 248.438 260.368 249.124C260.216 249.81 259.995 250.411 259.707 250.927C259.429 251.446 259.093 251.865 258.697 252.184C258.312 252.505 257.881 252.723 257.403 252.837C256.925 252.952 256.42 252.95 255.889 252.832C254.727 252.575 254.01 251.859 253.736 250.684L253.67 250.669L252.625 255.382L251.297 255.088L253.931 243.205ZM255.789 251.556C256.541 251.723 257.185 251.622 257.719 251.253C258.256 250.873 258.609 250.301 258.779 249.538L259.102 248.077C259.271 247.314 259.192 246.652 258.863 246.091C258.537 245.52 257.998 245.151 257.246 244.984C256.947 244.918 256.649 244.898 256.353 244.925C256.07 244.944 255.813 245.003 255.582 245.103C255.351 245.203 255.152 245.344 254.983 245.527C254.829 245.702 254.725 245.905 254.674 246.138L253.968 249.324C253.906 249.601 253.906 249.862 253.968 250.108C254.043 250.345 254.163 250.563 254.328 250.763C254.495 250.951 254.703 251.113 254.952 251.249C255.211 251.388 255.49 251.49 255.789 251.556ZM261.661 253.903L263.559 245.338L264.887 245.633L264.578 247.027L264.644 247.042C264.962 246.601 265.341 246.279 265.781 246.075C266.232 245.873 266.779 245.843 267.42 245.985C268.305 246.182 268.939 246.624 269.32 247.312C269.715 247.992 269.797 248.851 269.567 249.891L268.349 255.385L267.021 255.091L268.188 249.83C268.529 248.292 268.052 247.379 266.757 247.092C266.492 247.033 266.224 247.009 265.955 247.019C265.697 247.031 265.453 247.082 265.225 247.17C264.996 247.259 264.798 247.395 264.629 247.578C264.475 247.753 264.367 247.979 264.305 248.255L262.988 254.197L261.661 253.903ZM278.104 258.54C277.908 259.425 277.416 259.995 276.628 260.25C275.849 260.518 274.767 260.499 273.384 260.193C272.046 259.896 271.123 259.5 270.618 259.005C270.112 258.51 269.934 257.925 270.084 257.25C270.187 256.785 270.39 256.447 270.692 256.235C270.992 256.035 271.365 255.92 271.813 255.892L271.853 255.709C271.398 255.353 271.232 254.898 271.355 254.345C271.45 253.913 271.661 253.618 271.987 253.458C272.315 253.287 272.707 253.194 273.163 253.179L273.178 253.112C272.723 252.756 272.402 252.319 272.214 251.802C272.038 251.287 272.017 250.73 272.149 250.133C272.245 249.701 272.41 249.32 272.646 248.989C272.882 248.659 273.166 248.397 273.499 248.203C273.846 248.002 274.229 247.872 274.648 247.814C275.078 247.758 275.537 247.784 276.024 247.892C276.632 248.027 277.15 248.258 277.577 248.585L277.61 248.435C277.683 248.103 277.821 247.85 278.022 247.674C278.226 247.487 278.505 247.432 278.859 247.511L280.137 247.794L279.88 248.956L278.253 248.595L278.132 249.143C278.383 249.477 278.55 249.851 278.632 250.264C278.728 250.668 278.725 251.103 278.622 251.568C278.526 251.999 278.36 252.38 278.125 252.711C277.889 253.042 277.598 253.308 277.251 253.51C276.918 253.703 276.536 253.828 276.106 253.883C275.676 253.939 275.217 253.912 274.731 253.805C274.454 253.743 274.183 253.654 273.919 253.538C273.614 253.551 273.328 253.61 273.062 253.713C272.798 253.806 272.636 253.985 272.577 254.25C272.521 254.505 272.604 254.703 272.828 254.846C273.052 254.988 273.358 255.102 273.745 255.188L275.571 255.593C276.633 255.828 277.356 256.203 277.741 256.718C278.14 257.224 278.261 257.832 278.104 258.54ZM276.837 258.363C276.913 258.02 276.842 257.714 276.623 257.445C276.412 257.19 275.975 256.988 275.311 256.841L272.457 256.208C271.871 256.334 271.52 256.663 271.402 257.194C271.319 257.57 271.386 257.921 271.604 258.248C271.833 258.578 272.285 258.817 272.96 258.967L274.188 259.239C274.929 259.403 275.53 259.415 275.991 259.273C276.452 259.131 276.734 258.828 276.837 258.363ZM274.966 252.742C275.53 252.867 276.008 252.834 276.399 252.642C276.792 252.439 277.051 252.055 277.176 251.491L277.279 251.026C277.404 250.462 277.33 250.01 277.057 249.671C276.787 249.321 276.369 249.083 275.805 248.958C275.24 248.833 274.762 248.872 274.368 249.075C273.978 249.267 273.72 249.645 273.595 250.21L273.492 250.674C273.367 251.239 273.439 251.696 273.71 252.046C273.983 252.385 274.402 252.617 274.966 252.742ZM277.665 261.49L277.463 260.121C278.329 260.035 279.066 259.879 279.673 259.654C280.292 259.431 280.799 259.16 281.194 258.842C281.601 258.525 281.915 258.183 282.136 257.814C282.359 257.434 282.513 257.056 282.596 256.68C282.716 256.138 282.716 255.563 282.595 254.956C282.488 254.34 282.346 253.751 282.168 253.189L283.516 252.844C283.64 253.278 283.738 253.7 283.81 254.111C283.893 254.524 283.958 254.909 284.006 255.268C284.065 255.63 284.103 255.957 284.119 256.251C284.169 256.761 284.295 257.132 284.5 257.363C284.717 257.585 285.042 257.744 285.473 257.84C285.706 257.891 285.857 257.995 285.927 258.149C286.011 258.296 286.033 258.457 285.994 258.634C285.955 258.811 285.84 258.96 285.651 259.081C285.464 259.19 285.249 259.218 285.006 259.164C284.519 259.056 284.139 258.885 283.866 258.65C283.606 258.407 283.43 258.13 283.336 257.819C283.245 257.497 283.206 257.175 283.22 256.853L283.684 257.269C283.523 257.999 283.209 258.627 282.745 259.151C282.289 259.688 281.758 260.122 281.151 260.451C280.541 260.792 279.928 261.045 279.311 261.21C278.694 261.375 278.145 261.468 277.665 261.49ZM282.827 250.689C282.595 250.637 282.413 250.516 282.281 250.324C282.163 250.124 282.128 249.913 282.177 249.692C282.227 249.47 282.347 249.294 282.539 249.162C282.741 249.033 282.959 248.994 283.191 249.046C283.413 249.095 283.582 249.219 283.7 249.42C283.83 249.622 283.87 249.834 283.821 250.056C283.772 250.277 283.646 250.452 283.443 250.581C283.254 250.702 283.048 250.738 282.827 250.689ZM285.014 259.166L285.481 257.842C286.145 257.989 286.784 258.066 287.397 258.075C288.013 258.072 288.588 258.019 289.121 257.917C289.668 257.806 290.149 257.652 290.565 257.453C290.983 257.244 291.319 257.011 291.573 256.754C291.841 256.488 292.008 256.206 292.074 255.907C292.106 255.764 292.088 255.609 292.02 255.443C291.955 255.266 291.812 255.101 291.591 254.947C291.38 254.796 291.076 254.676 290.678 254.588C290.434 254.534 290.156 254.507 289.842 254.507C289.529 254.507 289.22 254.538 288.917 254.598C288.627 254.65 288.377 254.728 288.168 254.833C288.413 255.142 288.637 255.442 288.84 255.73C289.054 256.022 289.269 256.336 289.484 256.674C289.702 257.001 289.933 257.371 290.178 257.786C290.391 258.03 290.637 258.253 290.918 258.454C291.209 258.658 291.528 258.845 291.873 259.015C292.232 259.175 292.6 259.321 292.978 259.451C293.358 259.57 293.741 259.672 294.129 259.758C294.361 259.81 294.512 259.913 294.582 260.068C294.666 260.214 294.688 260.376 294.649 260.553C294.61 260.73 294.495 260.878 294.306 260.999C294.119 261.109 293.904 261.136 293.661 261.082C293.052 260.948 292.439 260.754 291.822 260.501C291.219 260.239 290.666 259.931 290.164 259.576C289.665 259.21 289.262 258.801 288.956 258.35C288.821 258.065 288.665 257.775 288.487 257.48C288.308 257.185 288.108 256.886 287.885 256.581C287.676 256.268 287.441 255.966 287.18 255.676C287.126 255.606 287.082 255.492 287.047 255.333C287.013 255.174 286.991 255.013 286.981 254.848C286.971 254.683 286.974 254.562 286.992 254.485C287.028 254.319 287.178 254.143 287.439 253.957C287.701 253.771 288.032 253.613 288.433 253.481C288.836 253.338 289.28 253.245 289.766 253.202C290.251 253.159 290.738 253.191 291.225 253.299C291.855 253.439 292.343 253.645 292.689 253.919C293.046 254.196 293.279 254.503 293.39 254.841C293.514 255.17 293.54 255.501 293.466 255.833C293.358 256.32 293.129 256.78 292.777 257.213C292.429 257.634 291.981 258.005 291.434 258.325C290.887 258.645 290.272 258.904 289.59 259.101C288.911 259.287 288.179 259.391 287.396 259.415C286.627 259.43 285.833 259.347 285.014 259.166ZM293.669 261.084L294.137 259.76C294.413 259.821 294.717 259.889 295.049 259.962C295.395 260.027 295.74 260.092 296.086 260.157C296.442 260.225 296.774 260.275 297.08 260.308C297.388 260.33 297.65 260.33 297.863 260.307C298.294 260.252 298.643 260.143 298.911 259.982C299.181 259.81 299.4 259.557 299.567 259.222C299.747 258.879 299.9 258.425 300.025 257.861C300.128 257.396 300.163 256.951 300.129 256.526C300.096 256.101 299.996 255.742 299.828 255.449C299.661 255.157 299.422 254.976 299.112 254.908C298.858 254.851 298.604 254.899 298.349 255.052C298.108 255.196 297.894 255.404 297.706 255.676C297.529 255.95 297.408 256.236 297.341 256.535C297.29 256.767 297.29 256.976 297.342 257.162C297.405 257.35 297.536 257.518 297.735 257.667C297.936 257.805 298.214 257.913 298.568 257.991C298.889 258.062 299.217 258.1 299.553 258.105C299.9 258.112 300.202 258.086 300.458 258.027L300.267 259.203C300.063 259.286 299.842 259.341 299.604 259.37C299.365 259.398 299.12 259.402 298.87 259.381C298.619 259.36 298.372 259.323 298.128 259.269C297.564 259.144 297.102 258.949 296.743 258.684C296.398 258.41 296.154 258.094 296.013 257.738C295.885 257.373 295.866 256.986 295.957 256.576C296.05 256.156 296.209 255.75 296.435 255.359C296.664 254.957 296.939 254.606 297.261 254.306C297.583 254.006 297.939 253.789 298.328 253.654C298.72 253.509 299.126 253.483 299.547 253.576C300.144 253.709 300.594 254.011 300.895 254.485C301.208 254.96 301.388 255.534 301.437 256.206C301.498 256.87 301.452 257.551 301.298 258.248C301.114 259.078 300.812 259.759 300.391 260.293C299.985 260.818 299.412 261.202 298.674 261.445C298.387 261.532 298.05 261.585 297.663 261.604C297.289 261.614 296.881 261.599 296.437 261.558C296.004 261.52 295.554 261.456 295.087 261.364C294.617 261.283 294.145 261.19 293.669 261.084ZM299.61 251.797C299.378 251.745 299.196 251.624 299.064 251.432C298.946 251.232 298.912 251.021 298.961 250.8C299.01 250.578 299.13 250.402 299.322 250.27C299.525 250.141 299.742 250.102 299.975 250.154C300.196 250.203 300.366 250.327 300.484 250.528C300.613 250.73 300.653 250.942 300.604 251.164C300.555 251.385 300.429 251.56 300.226 251.69C300.037 251.81 299.832 251.846 299.61 251.797ZM304.962 262.159C305.516 262.282 305.965 262.324 306.31 262.284C306.667 262.247 306.94 262.139 307.131 261.961C307.335 261.774 307.469 261.537 307.532 261.249C307.581 261.028 307.579 260.749 307.526 260.412C307.484 260.078 307.405 259.7 307.29 259.28C307.176 258.848 307.033 258.393 306.861 257.914C306.702 257.426 306.523 256.927 306.322 256.419L307.633 255.926C307.919 256.674 308.158 257.377 308.349 258.035C308.543 258.681 308.693 259.283 308.802 259.841C308.913 260.388 308.986 260.898 309.02 261.37C309.067 261.891 309.159 262.289 309.296 262.563C309.443 262.839 309.615 263.034 309.811 263.147C310.009 263.249 310.196 263.319 310.373 263.359C310.605 263.41 310.762 263.515 310.843 263.672C310.927 263.818 310.949 263.98 310.91 264.157C310.871 264.334 310.757 264.483 310.567 264.603C310.381 264.713 310.165 264.741 309.922 264.687C309.557 264.606 309.212 264.46 308.887 264.248C308.576 264.028 308.328 263.735 308.142 263.369C307.959 262.992 307.876 262.527 307.894 261.973L308.676 261.589C308.578 262.032 308.388 262.443 308.107 262.822C307.828 263.189 307.41 263.451 306.853 263.606C306.307 263.764 305.575 263.741 304.657 263.537C304.259 263.449 303.879 263.33 303.517 263.18C303.167 263.033 302.85 262.864 302.567 262.673C302.287 262.472 302.05 262.257 301.857 262.028L302.775 261.03C302.964 261.223 303.243 261.43 303.612 261.651C303.981 261.872 304.431 262.042 304.962 262.159ZM309.926 264.687L310.377 263.36C311.008 263.499 311.464 263.537 311.745 263.471C312.027 263.406 312.218 263.222 312.32 262.92C312.433 262.62 312.54 262.191 312.64 261.632L314.197 253.114L315.542 253.412L314.034 261.785C313.926 262.376 313.789 262.891 313.622 263.33C313.466 263.771 313.238 264.121 312.937 264.38C312.647 264.64 312.258 264.798 311.77 264.852C311.293 264.909 310.678 264.854 309.926 264.687ZM315.783 265.898L318.077 253.974L319.422 254.272L317.127 266.196L315.783 265.898ZM318.101 269.285L318.359 268.124L326.74 269.981L326.483 271.143L318.101 269.285ZM328.089 268.644C328.148 268.378 328.233 268.101 328.343 267.812C328.467 267.514 328.617 267.205 328.793 266.884C328.982 266.555 329.197 266.213 329.437 265.86L330.529 266.59C330.35 266.875 330.186 267.146 330.036 267.403C329.897 267.663 329.778 267.909 329.68 268.143C329.593 268.379 329.525 268.608 329.476 268.829C329.358 269.36 329.395 269.85 329.586 270.299C329.787 270.75 330.114 271.135 330.565 271.456C331.017 271.777 331.574 272.01 332.238 272.158C333.046 272.337 333.735 272.368 334.307 272.25C334.89 272.136 335.377 271.872 335.771 271.46C336.175 271.051 336.508 270.492 336.769 269.784C337.033 269.065 337.259 268.203 337.446 267.2L339.018 258.616L340.396 258.921L338.713 267.847C338.571 268.593 338.38 269.299 338.139 269.966C337.912 270.623 337.62 271.209 337.262 271.721C336.903 272.245 336.471 272.672 335.969 273.002C335.464 273.343 334.876 273.561 334.205 273.656C333.533 273.751 332.761 273.701 331.887 273.508C331.3 273.378 330.748 273.174 330.229 272.896C329.71 272.619 329.263 272.276 328.889 271.868C328.515 271.46 328.25 270.983 328.092 270.438C327.943 269.905 327.942 269.307 328.089 268.644ZM343.947 272.228C343.061 272.032 342.403 271.781 341.971 271.477C341.551 271.174 341.299 270.794 341.215 270.334C341.131 269.874 341.151 269.31 341.276 268.641L342.957 259.489L344.318 259.79L342.755 268.412C342.657 268.959 342.614 269.39 342.625 269.706C342.65 270.013 342.794 270.254 343.057 270.429C343.331 270.606 343.784 270.764 344.414 270.904C344.647 270.955 344.798 271.058 344.868 271.213C344.952 271.359 344.974 271.521 344.935 271.698C344.895 271.875 344.781 272.024 344.592 272.145C344.405 272.254 344.19 272.282 343.947 272.228ZM359.698 275.719C359.41 275.655 359.051 275.547 358.621 275.393C358.204 275.231 357.786 275.022 357.366 274.767C356.958 274.514 356.63 274.215 356.381 273.87L357.893 273.491C358.246 273.731 358.621 273.925 359.018 274.071C359.429 274.208 359.811 274.316 360.165 274.395C360.398 274.446 360.549 274.549 360.619 274.704C360.703 274.851 360.725 275.012 360.686 275.189C360.646 275.366 360.532 275.515 360.343 275.636C360.156 275.745 359.941 275.773 359.698 275.719ZM351.932 274.224C350.958 274.008 350.148 273.788 349.501 273.564C348.863 273.352 348.356 273.13 347.978 272.895C347.6 272.66 347.331 272.409 347.17 272.141C347.009 271.873 346.924 271.576 346.915 271.249L347.326 271.201C346.932 271.671 346.547 271.992 346.172 272.164C345.8 272.325 345.429 272.4 345.061 272.388C344.705 272.367 344.334 272.314 343.947 272.228L344.414 270.904C344.802 270.99 345.129 271.004 345.397 270.947C345.676 270.893 345.921 270.756 346.133 270.536C346.355 270.318 346.574 270.013 346.789 269.619C347.004 269.226 347.252 268.735 347.533 268.147L348.675 268.731C348.552 268.971 348.437 269.201 348.33 269.421C348.223 269.641 348.134 269.836 348.061 270.006C348.002 270.167 347.962 270.297 347.94 270.397C347.881 270.662 347.891 270.902 347.971 271.118C348.054 271.322 348.253 271.522 348.569 271.72C348.888 271.907 349.362 272.099 349.991 272.297C350.634 272.485 351.481 272.696 352.532 272.929C353.263 273.091 353.925 273.192 354.52 273.231C355.115 273.27 355.626 273.244 356.053 273.152C356.493 273.053 356.847 272.893 357.116 272.674C357.385 272.455 357.558 272.174 357.634 271.831C357.688 271.588 357.68 271.336 357.61 271.077C357.542 270.807 357.399 270.56 357.181 270.338C356.964 270.116 356.645 269.958 356.224 269.865C355.693 269.747 355.131 269.768 354.539 269.926C353.957 270.088 353.382 270.326 352.813 270.641C352.258 270.947 351.75 271.276 351.289 271.626C350.828 271.977 350.452 272.288 350.159 272.56L348.726 272.19C349.208 271.693 349.758 271.2 350.378 270.711C351.01 270.212 351.676 269.774 352.376 269.395C353.088 269.007 353.806 268.731 354.527 268.566C355.251 268.389 355.95 268.376 356.625 268.526C357.234 268.661 357.726 268.903 358.101 269.253C358.49 269.595 358.753 270.002 358.893 270.473C359.043 270.948 359.059 271.451 358.941 271.982C358.797 272.635 358.469 273.195 357.96 273.662C357.463 274.121 356.725 274.416 355.744 274.547C354.763 274.677 353.492 274.57 351.932 274.224ZM359.701 275.72L360.169 274.396C360.822 274.54 361.336 274.631 361.711 274.668C362.088 274.693 362.376 274.624 362.575 274.459C362.777 274.283 362.927 273.974 363.025 273.531C363.086 273.254 363.114 272.918 363.109 272.522C363.106 272.116 363.081 271.68 363.033 271.217C362.984 270.754 362.924 270.293 362.851 269.836L364.306 269.636C364.371 270.022 364.414 270.455 364.436 270.936C364.468 271.419 364.479 271.892 364.47 272.354C364.46 272.816 364.418 273.213 364.345 273.545C364.222 274.098 364.041 274.551 363.8 274.904C363.57 275.26 363.268 275.524 362.893 275.696C362.518 275.868 362.064 275.953 361.531 275.951C361.008 275.951 360.398 275.874 359.701 275.72ZM362.076 279.537C361.844 279.486 361.663 279.359 361.534 279.156C361.414 278.967 361.378 278.761 361.427 278.54C361.476 278.319 361.596 278.142 361.788 278.011C361.991 277.881 362.208 277.843 362.441 277.894C362.662 277.943 362.832 278.068 362.95 278.268C363.079 278.471 363.119 278.683 363.07 278.904C363.021 279.125 362.896 279.295 362.696 279.413C362.504 279.545 362.298 279.586 362.076 279.537ZM359.803 279.033C359.57 278.982 359.39 278.855 359.26 278.652C359.14 278.463 359.104 278.257 359.153 278.036C359.202 277.815 359.322 277.638 359.514 277.507C359.717 277.377 359.934 277.339 360.167 277.39C360.388 277.439 360.558 277.564 360.676 277.764C360.805 277.967 360.845 278.179 360.796 278.4C360.747 278.622 360.622 278.791 360.422 278.909C360.23 279.041 360.024 279.082 359.803 279.033ZM366.206 277.075L368.501 265.151L369.845 265.449L367.551 277.372L366.206 277.075Z" fill="#ECECEC"/>
</g>
</g>
<path d="M239.625 264.873L238.875 264.869L238.879 264.119L238.891 261.937C238.894 261.514 238.765 261.182 238.508 260.899C238.254 260.619 237.98 260.5 237.649 260.499C237.624 260.498 237.608 260.499 237.599 260.5C237.598 260.5 237.597 260.5 237.597 260.5L237.567 260.506L237.527 260.511C237.221 260.542 236.971 260.676 236.748 260.961C236.514 261.259 236.393 261.604 236.391 262.026L236.379 264.105L236.375 264.855L235.625 264.851L235.125 264.848L234.375 264.844L234.379 264.094L234.391 261.912C234.393 261.571 234.289 261.304 234.078 261.071C233.867 260.839 233.653 260.749 233.398 260.747C233.361 260.747 233.292 260.752 233.181 260.767C232.981 260.816 232.808 260.928 232.649 261.15C232.477 261.391 232.393 261.651 232.391 261.952L232.379 264.083L232.375 264.833L231.625 264.828L231.125 264.826L230.375 264.821L230.379 264.071L230.382 263.526C230.384 263.185 230.28 262.918 230.068 262.684C229.858 262.453 229.643 262.363 229.389 262.361C229.108 262.36 228.895 262.453 228.701 262.673C228.496 262.904 228.384 263.187 228.382 263.566L228.358 267.759C228.356 268.169 228.4 268.544 228.485 268.887L228.487 268.897L228.49 268.906L230.133 276.338C230.25 276.811 230.305 277.309 230.302 277.827L230.3 278.253C230.299 278.363 230.328 278.437 230.398 278.514C230.466 278.589 230.505 278.595 230.548 278.595L240.547 278.651C240.59 278.652 240.629 278.646 240.698 278.572C240.769 278.496 240.799 278.422 240.799 278.312C240.804 277.446 241.059 276.675 241.618 276.071L241.624 276.065L241.63 276.059L246.496 271.047C246.733 270.789 246.843 270.506 246.845 270.164L246.867 266.346C246.869 266.005 246.765 265.738 246.553 265.504C246.343 265.272 246.128 265.183 245.873 265.181C245.592 265.18 245.38 265.273 245.186 265.492C244.98 265.724 244.868 266.007 244.866 266.386L244.85 269.318L244.848 269.623L244.633 269.841L244.13 270.349L242.837 271.657L242.847 269.818L242.888 262.505C242.89 262.164 242.786 261.897 242.574 261.664C242.364 261.432 242.149 261.342 241.895 261.341C241.614 261.339 241.401 261.433 241.207 261.652C241.002 261.884 240.89 262.166 240.888 262.545L240.879 264.13L240.875 264.88L240.125 264.876L239.625 264.873Z" fill="#ECECEC" stroke="#ECECEC" stroke-width="1.5"/>
</g>
<g filter="url(#filter3_d_874_27093)">
<g filter="url(#filter4_i_874_27093)">
<g clip-path="url(#clip2_874_27093)">
<rect width="323" height="51.691" rx="8" transform="matrix(-0.978148 -0.207912 -0.207912 0.978148 400.666 249.098)" fill="#C96346"/>
<g clip-path="url(#clip3_874_27093)">
<path d="M372.653 268.441C372.379 268.332 372.128 268.17 371.917 267.964C371.705 267.758 371.535 267.512 371.418 267.241C371.301 266.97 371.239 266.678 371.235 266.382C371.23 266.087 371.284 265.794 371.393 265.519C371.503 265.244 371.665 264.994 371.871 264.782C372.076 264.57 372.322 264.401 372.593 264.284C372.865 264.167 373.156 264.104 373.452 264.1C373.747 264.096 374.041 264.15 374.315 264.259C374.87 264.479 375.314 264.911 375.55 265.459C375.787 266.007 375.796 266.626 375.575 267.181C375.355 267.735 374.923 268.18 374.375 268.416C373.827 268.652 373.208 268.661 372.653 268.441Z" fill="white"/>
<path d="M358.324 274.046C358.03 274.786 358.042 275.611 358.357 276.342C358.672 277.073 359.265 277.648 360.004 277.942L371.156 282.373C371.895 282.667 372.721 282.655 373.452 282.34C374.182 282.025 374.758 281.433 375.052 280.693L381.699 263.966C381.993 263.226 381.981 262.4 381.666 261.67C381.351 260.939 380.758 260.364 380.019 260.07L372.352 257.023L363.586 260.803L358.324 274.046ZM379.465 261.464C379.834 261.611 380.131 261.899 380.288 262.264C380.446 262.629 380.452 263.042 380.305 263.412L374.765 277.351L372.897 273.019C372.831 272.866 372.715 272.739 372.569 272.659C372.422 272.579 372.253 272.55 372.088 272.577L368.35 273.188L367.016 267.783C366.989 267.678 366.941 267.579 366.873 267.494C366.804 267.409 366.719 267.34 366.621 267.292C366.524 267.243 366.417 267.217 366.308 267.214C366.199 267.211 366.091 267.231 365.991 267.274L361.934 269.024L364.98 261.357L367.768 262.465C368.323 262.686 368.942 262.677 369.49 262.44C370.038 262.204 370.47 261.76 370.69 261.205L371.798 258.417L379.465 261.464Z" fill="white"/>
</g>
<path d="M230.445 236.605L231.773 236.9L231.464 238.294L231.53 238.309C231.872 237.815 232.281 237.488 232.758 237.327C233.248 237.157 233.792 237.138 234.389 237.271C234.921 237.388 235.379 237.6 235.764 237.906C236.148 238.212 236.447 238.592 236.66 239.045C236.884 239.501 237.012 240.023 237.045 240.61C237.088 241.2 237.034 241.838 236.882 242.524C236.73 243.21 236.509 243.812 236.221 244.328C235.943 244.847 235.607 245.266 235.211 245.584C234.826 245.905 234.395 246.123 233.917 246.238C233.439 246.352 232.934 246.351 232.403 246.233C231.241 245.976 230.523 245.259 230.25 244.084L230.184 244.07L229.139 248.783L227.811 248.489L230.445 236.605ZM232.303 244.957C233.055 245.124 233.699 245.023 234.233 244.654C234.77 244.274 235.123 243.702 235.292 242.938L235.616 241.478C235.785 240.714 235.706 240.052 235.377 239.492C235.051 238.921 234.512 238.552 233.759 238.385C233.461 238.319 233.163 238.299 232.867 238.326C232.584 238.345 232.327 238.404 232.096 238.504C231.865 238.603 231.666 238.745 231.497 238.928C231.342 239.103 231.239 239.306 231.188 239.539L230.482 242.725C230.42 243.002 230.42 243.263 230.482 243.509C230.557 243.746 230.677 243.964 230.842 244.163C231.009 244.351 231.217 244.513 231.465 244.65C231.725 244.789 232.004 244.891 232.303 244.957ZM238.174 247.303L240.073 238.739L241.4 239.034L241.091 240.428L241.158 240.442C241.476 240.002 241.855 239.68 242.295 239.476C242.746 239.274 243.292 239.244 243.934 239.386C244.819 239.582 245.453 240.025 245.834 240.713C246.229 241.392 246.311 242.252 246.081 243.292L244.863 248.786L243.535 248.492L244.701 243.23C245.042 241.692 244.566 240.78 243.271 240.493C243.005 240.434 242.738 240.41 242.469 240.42C242.211 240.432 241.967 240.483 241.739 240.571C241.51 240.66 241.312 240.796 241.143 240.979C240.989 241.154 240.88 241.379 240.819 241.656L239.502 247.598L238.174 247.303ZM254.618 251.941C254.422 252.826 253.93 253.396 253.142 253.651C252.362 253.919 251.281 253.9 249.898 253.593C248.559 253.297 247.637 252.901 247.132 252.406C246.626 251.911 246.448 251.325 246.598 250.651C246.701 250.186 246.904 249.848 247.206 249.636C247.506 249.435 247.879 249.321 248.327 249.292L248.367 249.11C247.912 248.754 247.746 248.299 247.869 247.746C247.964 247.314 248.175 247.018 248.501 246.858C248.829 246.687 249.221 246.594 249.677 246.579L249.692 246.513C249.236 246.157 248.915 245.72 248.728 245.202C248.552 244.687 248.53 244.131 248.663 243.534C248.758 243.102 248.924 242.721 249.16 242.39C249.396 242.059 249.68 241.797 250.013 241.604C250.36 241.402 250.743 241.273 251.162 241.215C251.592 241.159 252.051 241.185 252.537 241.293C253.146 241.428 253.664 241.659 254.09 241.986L254.124 241.836C254.197 241.504 254.335 241.25 254.536 241.074C254.74 240.887 255.019 240.833 255.373 240.912L256.651 241.195L256.394 242.357L254.767 241.996L254.646 242.544C254.897 242.878 255.063 243.252 255.146 243.665C255.242 244.069 255.239 244.504 255.136 244.968C255.04 245.4 254.874 245.781 254.638 246.112C254.403 246.443 254.111 246.709 253.765 246.911C253.432 247.104 253.05 247.228 252.62 247.284C252.19 247.339 251.731 247.313 251.244 247.205C250.968 247.144 250.697 247.055 250.433 246.938C250.128 246.952 249.842 247.011 249.576 247.114C249.311 247.206 249.15 247.385 249.091 247.651C249.035 247.905 249.118 248.104 249.342 248.246C249.566 248.389 249.871 248.503 250.259 248.589L252.084 248.994C253.147 249.229 253.87 249.604 254.255 250.119C254.654 250.625 254.775 251.232 254.618 251.941ZM253.351 251.764C253.427 251.421 253.355 251.115 253.136 250.846C252.926 250.59 252.489 250.389 251.825 250.242L248.97 249.609C248.385 249.735 248.034 250.063 247.916 250.594C247.833 250.971 247.9 251.322 248.118 251.649C248.347 251.978 248.799 252.218 249.473 252.367L250.702 252.64C251.443 252.804 252.044 252.815 252.505 252.674C252.966 252.532 253.248 252.229 253.351 251.764ZM251.48 246.143C252.044 246.268 252.522 246.235 252.913 246.043C253.306 245.84 253.565 245.456 253.69 244.892L253.793 244.427C253.918 243.863 253.844 243.411 253.571 243.072C253.3 242.722 252.883 242.484 252.319 242.359C251.754 242.234 251.276 242.273 250.882 242.476C250.491 242.668 250.234 243.046 250.108 243.61L250.005 244.075C249.88 244.639 249.953 245.097 250.224 245.447C250.497 245.786 250.916 246.018 251.48 246.143ZM254.178 254.89L253.977 253.522C254.843 253.436 255.58 253.28 256.187 253.055C256.805 252.832 257.312 252.561 257.708 252.242C258.115 251.926 258.429 251.584 258.65 251.215C258.873 250.835 259.027 250.457 259.11 250.081C259.23 249.538 259.23 248.964 259.109 248.357C259.002 247.741 258.86 247.152 258.682 246.59L260.03 246.245C260.154 246.679 260.252 247.101 260.324 247.511C260.406 247.924 260.472 248.31 260.52 248.669C260.579 249.031 260.617 249.358 260.633 249.652C260.682 250.162 260.809 250.533 261.013 250.764C261.231 250.986 261.556 251.145 261.987 251.241C262.22 251.292 262.371 251.395 262.441 251.55C262.525 251.696 262.547 251.858 262.508 252.035C262.468 252.212 262.354 252.361 262.165 252.481C261.978 252.591 261.763 252.619 261.52 252.565C261.033 252.457 260.653 252.286 260.38 252.051C260.12 251.808 259.944 251.531 259.85 251.22C259.759 250.898 259.72 250.576 259.733 250.254L260.198 250.67C260.036 251.4 259.723 252.027 259.259 252.551C258.803 253.089 258.272 253.522 257.665 253.852C257.055 254.193 256.442 254.446 255.825 254.611C255.208 254.776 254.659 254.869 254.178 254.89ZM259.341 244.09C259.109 244.038 258.927 243.916 258.795 243.725C258.677 243.524 258.642 243.314 258.691 243.092C258.74 242.871 258.861 242.695 259.052 242.563C259.255 242.434 259.473 242.395 259.705 242.446C259.926 242.495 260.096 242.62 260.214 242.82C260.343 243.023 260.384 243.235 260.334 243.457C260.285 243.678 260.16 243.853 259.957 243.982C259.768 244.103 259.562 244.139 259.341 244.09ZM261.528 252.567L261.995 251.242C262.659 251.39 263.298 251.467 263.911 251.476C264.527 251.473 265.102 251.42 265.635 251.318C266.182 251.207 266.663 251.052 267.079 250.854C267.497 250.645 267.833 250.412 268.087 250.155C268.355 249.889 268.522 249.607 268.588 249.308C268.62 249.164 268.602 249.009 268.534 248.844C268.469 248.667 268.326 248.501 268.104 248.348C267.894 248.197 267.59 248.077 267.191 247.989C266.948 247.935 266.67 247.908 266.356 247.908C266.043 247.908 265.734 247.939 265.431 247.999C265.14 248.051 264.891 248.129 264.682 248.234C264.927 248.543 265.151 248.842 265.354 249.131C265.568 249.422 265.782 249.737 265.998 250.075C266.216 250.402 266.447 250.772 266.692 251.186C266.904 251.431 267.151 251.654 267.431 251.855C267.723 252.059 268.041 252.246 268.387 252.415C268.746 252.576 269.114 252.722 269.492 252.852C269.872 252.971 270.255 253.073 270.642 253.159C270.875 253.211 271.026 253.314 271.096 253.469C271.18 253.615 271.202 253.776 271.163 253.953C271.124 254.13 271.009 254.279 270.82 254.4C270.633 254.509 270.418 254.537 270.175 254.483C269.566 254.348 268.953 254.154 268.336 253.902C267.732 253.64 267.18 253.332 266.678 252.977C266.179 252.611 265.776 252.202 265.469 251.751C265.335 251.466 265.179 251.176 265.001 250.881C264.822 250.586 264.622 250.286 264.399 249.982C264.19 249.668 263.955 249.367 263.694 249.077C263.64 249.007 263.596 248.892 263.561 248.734C263.527 248.575 263.504 248.414 263.495 248.249C263.485 248.084 263.488 247.963 263.505 247.886C263.542 247.72 263.691 247.544 263.953 247.358C264.215 247.172 264.546 247.014 264.947 246.882C265.35 246.739 265.794 246.646 266.28 246.603C266.765 246.559 267.252 246.592 267.738 246.7C268.369 246.839 268.857 247.046 269.203 247.32C269.559 247.597 269.793 247.904 269.904 248.242C270.028 248.571 270.054 248.902 269.98 249.234C269.872 249.721 269.643 250.18 269.291 250.613C268.942 251.035 268.495 251.406 267.948 251.726C267.401 252.046 266.786 252.304 266.104 252.501C265.425 252.687 264.693 252.792 263.91 252.816C263.141 252.831 262.346 252.748 261.528 252.567ZM270.183 254.485L270.65 253.161C270.927 253.222 271.231 253.29 271.563 253.363C271.909 253.428 272.254 253.493 272.6 253.558C272.956 253.625 273.288 253.676 273.594 253.709C273.902 253.731 274.163 253.73 274.377 253.708C274.808 253.653 275.157 253.544 275.424 253.383C275.695 253.211 275.913 252.958 276.08 252.623C276.261 252.28 276.414 251.826 276.539 251.262C276.642 250.797 276.677 250.352 276.643 249.927C276.61 249.502 276.509 249.143 276.342 248.85C276.175 248.558 275.936 248.377 275.626 248.309C275.372 248.252 275.117 248.3 274.863 248.453C274.622 248.597 274.408 248.805 274.22 249.076C274.043 249.351 273.921 249.637 273.855 249.936C273.804 250.168 273.804 250.377 273.856 250.563C273.918 250.751 274.049 250.919 274.249 251.068C274.45 251.205 274.728 251.313 275.082 251.392C275.403 251.463 275.731 251.501 276.067 251.506C276.414 251.513 276.715 251.487 276.972 251.428L276.781 252.604C276.577 252.687 276.356 252.742 276.117 252.771C275.879 252.799 275.634 252.803 275.384 252.782C275.133 252.761 274.886 252.724 274.642 252.67C274.078 252.545 273.616 252.35 273.257 252.084C272.912 251.81 272.668 251.495 272.526 251.139C272.398 250.774 272.38 250.387 272.47 249.977C272.564 249.557 272.723 249.151 272.949 248.76C273.178 248.358 273.453 248.007 273.775 247.707C274.097 247.407 274.452 247.189 274.842 247.055C275.234 246.91 275.64 246.884 276.061 246.977C276.658 247.109 277.108 247.412 277.409 247.885C277.722 248.361 277.902 248.935 277.95 249.607C278.012 250.271 277.966 250.951 277.811 251.649C277.627 252.478 277.325 253.16 276.905 253.694C276.499 254.219 275.926 254.603 275.187 254.845C274.901 254.933 274.564 254.986 274.177 255.005C273.803 255.015 273.395 254.999 272.951 254.959C272.518 254.921 272.068 254.856 271.601 254.764C271.131 254.684 270.659 254.59 270.183 254.485ZM276.124 245.198C275.892 245.146 275.71 245.025 275.578 244.833C275.46 244.633 275.426 244.422 275.475 244.2C275.524 243.979 275.644 243.803 275.836 243.671C276.039 243.542 276.256 243.503 276.489 243.554C276.71 243.604 276.88 243.728 276.998 243.929C277.127 244.131 277.167 244.343 277.118 244.565C277.069 244.786 276.943 244.961 276.74 245.09C276.551 245.211 276.346 245.247 276.124 245.198ZM281.476 255.56C282.029 255.683 282.479 255.724 282.824 255.685C283.181 255.648 283.454 255.54 283.645 255.362C283.849 255.175 283.982 254.937 284.046 254.65C284.095 254.428 284.093 254.149 284.04 253.813C283.998 253.478 283.919 253.101 283.804 252.681C283.69 252.249 283.547 251.794 283.375 251.315C283.216 250.827 283.036 250.328 282.836 249.819L284.146 249.326C284.433 250.075 284.672 250.778 284.863 251.435C285.056 252.082 285.207 252.684 285.316 253.242C285.427 253.789 285.5 254.299 285.534 254.771C285.581 255.292 285.673 255.689 285.81 255.964C285.957 256.24 286.129 256.435 286.324 256.548C286.522 256.65 286.71 256.72 286.887 256.759C287.119 256.811 287.276 256.915 287.357 257.073C287.441 257.219 287.463 257.381 287.424 257.558C287.385 257.735 287.27 257.883 287.081 258.004C286.894 258.114 286.679 258.141 286.436 258.087C286.071 258.006 285.726 257.86 285.401 257.649C285.09 257.429 284.842 257.136 284.656 256.77C284.472 256.393 284.39 255.927 284.408 255.374L285.19 254.99C285.091 255.433 284.902 255.844 284.62 256.222C284.342 256.59 283.924 256.851 283.367 257.007C282.821 257.164 282.089 257.141 281.171 256.938C280.773 256.85 280.393 256.73 280.031 256.581C279.681 256.433 279.364 256.265 279.081 256.074C278.801 255.873 278.564 255.658 278.371 255.429L279.289 254.431C279.478 254.624 279.757 254.831 280.126 255.052C280.495 255.273 280.945 255.443 281.476 255.56ZM286.44 258.088L286.891 256.76C287.521 256.9 287.977 256.937 288.259 256.872C288.54 256.807 288.732 256.623 288.834 256.32C288.947 256.02 289.054 255.591 289.154 255.033L290.711 246.515L292.056 246.813L290.548 255.185C290.44 255.777 290.303 256.292 290.136 256.731C289.98 257.172 289.752 257.522 289.451 257.78C289.161 258.041 288.772 258.199 288.284 258.253C287.807 258.31 287.192 258.255 286.44 258.088ZM292.296 259.299L294.591 247.375L295.935 247.673L293.641 259.597L292.296 259.299ZM294.615 262.686L294.873 261.524L303.254 263.382L302.997 264.544L294.615 262.686ZM304.603 262.044C304.662 261.779 304.747 261.502 304.857 261.213C304.981 260.915 305.131 260.606 305.306 260.285C305.496 259.955 305.711 259.614 305.951 259.261L307.043 259.991C306.864 260.276 306.699 260.547 306.55 260.804C306.411 261.064 306.292 261.31 306.194 261.544C306.107 261.78 306.039 262.009 305.99 262.23C305.872 262.761 305.909 263.251 306.099 263.699C306.301 264.15 306.628 264.536 307.079 264.857C307.53 265.177 308.088 265.411 308.752 265.558C309.56 265.737 310.249 265.768 310.821 265.651C311.403 265.537 311.891 265.273 312.284 264.861C312.689 264.452 313.022 263.893 313.283 263.185C313.547 262.465 313.773 261.604 313.96 260.601L315.532 252.017L316.909 252.322L315.227 261.247C315.085 261.994 314.894 262.7 314.653 263.366C314.426 264.024 314.134 264.609 313.776 265.122C313.416 265.646 312.985 266.073 312.483 266.403C311.978 266.743 311.39 266.961 310.718 267.056C310.047 267.151 309.275 267.102 308.401 266.908C307.814 266.778 307.261 266.575 306.742 266.297C306.224 266.02 305.777 265.677 305.403 265.269C305.029 264.861 304.764 264.384 304.606 263.838C304.457 263.306 304.456 262.708 304.603 262.044ZM320.46 265.629C319.575 265.432 318.917 265.182 318.485 264.877C318.065 264.575 317.812 264.194 317.729 263.735C317.645 263.275 317.665 262.711 317.79 262.042L319.471 252.89L320.832 253.191L319.269 261.812C319.171 262.36 319.128 262.791 319.139 263.107C319.164 263.414 319.308 263.655 319.571 263.83C319.845 264.006 320.297 264.165 320.928 264.304C321.16 264.356 321.312 264.459 321.382 264.614C321.466 264.76 321.488 264.922 321.449 265.099C321.409 265.276 321.295 265.425 321.106 265.545C320.919 265.655 320.704 265.683 320.46 265.629ZM336.211 269.12C335.924 269.056 335.565 268.947 335.134 268.794C334.718 268.632 334.3 268.423 333.88 268.168C333.472 267.915 333.144 267.616 332.895 267.27L334.407 266.891C334.76 267.132 335.135 267.326 335.532 267.472C335.943 267.609 336.325 267.717 336.679 267.796C336.911 267.847 337.063 267.95 337.133 268.105C337.217 268.251 337.239 268.413 337.2 268.59C337.16 268.767 337.046 268.916 336.857 269.036C336.67 269.146 336.455 269.174 336.211 269.12ZM328.446 267.625C327.472 267.409 326.662 267.189 326.015 266.964C325.377 266.753 324.869 266.53 324.492 266.296C324.114 266.061 323.845 265.81 323.684 265.542C323.523 265.274 323.438 264.977 323.429 264.65L323.84 264.602C323.446 265.071 323.061 265.393 322.686 265.565C322.314 265.726 321.943 265.801 321.575 265.789C321.219 265.768 320.848 265.715 320.461 265.629L320.928 264.305C321.316 264.39 321.643 264.405 321.911 264.348C322.19 264.294 322.435 264.157 322.647 263.937C322.869 263.719 323.088 263.413 323.303 263.02C323.517 262.626 323.766 262.136 324.047 261.548L325.188 262.132C325.066 262.372 324.951 262.602 324.844 262.822C324.737 263.042 324.648 263.237 324.575 263.406C324.516 263.567 324.476 263.698 324.454 263.797C324.395 264.063 324.405 264.303 324.485 264.518C324.568 264.722 324.767 264.923 325.083 265.121C325.402 265.308 325.876 265.5 326.505 265.697C327.148 265.886 327.995 266.097 329.046 266.33C329.777 266.492 330.439 266.593 331.034 266.632C331.629 266.671 332.14 266.644 332.566 266.553C333.007 266.453 333.361 266.294 333.63 266.075C333.899 265.856 334.072 265.575 334.148 265.232C334.202 264.989 334.194 264.737 334.123 264.478C334.056 264.208 333.913 263.961 333.695 263.739C333.478 263.516 333.158 263.359 332.738 263.265C332.207 263.148 331.645 263.168 331.053 263.327C330.471 263.489 329.896 263.727 329.327 264.042C328.772 264.348 328.264 264.677 327.803 265.027C327.342 265.378 326.965 265.689 326.673 265.961L325.24 265.591C325.722 265.094 326.272 264.601 326.891 264.111C327.524 263.613 328.19 263.175 328.89 262.796C329.602 262.408 330.319 262.132 331.041 261.966C331.765 261.79 332.464 261.777 333.139 261.927C333.748 262.061 334.24 262.304 334.615 262.654C335.003 262.996 335.267 263.402 335.406 263.874C335.557 264.349 335.573 264.851 335.455 265.383C335.311 266.035 334.983 266.596 334.473 267.063C333.977 267.522 333.238 267.817 332.257 267.947C331.277 268.078 330.006 267.971 328.446 267.625ZM336.215 269.121L336.683 267.796C337.336 267.941 337.849 268.032 338.224 268.068C338.602 268.094 338.89 268.024 339.089 267.86C339.291 267.684 339.44 267.374 339.538 266.932C339.6 266.655 339.628 266.319 339.623 265.923C339.62 265.516 339.595 265.081 339.546 264.618C339.498 264.154 339.438 263.694 339.365 263.237L340.82 263.037C340.885 263.423 340.928 263.856 340.949 264.337C340.982 264.82 340.993 265.292 340.983 265.755C340.974 266.217 340.932 266.614 340.859 266.946C340.736 267.499 340.554 267.952 340.314 268.305C340.084 268.661 339.782 268.924 339.407 269.097C339.032 269.269 338.578 269.354 338.044 269.352C337.522 269.352 336.912 269.275 336.215 269.121ZM338.59 272.938C338.358 272.887 338.177 272.759 338.048 272.557C337.927 272.367 337.892 272.162 337.941 271.941C337.99 271.72 338.11 271.543 338.302 271.411C338.505 271.282 338.722 271.243 338.955 271.295C339.176 271.344 339.346 271.469 339.464 271.669C339.593 271.872 339.633 272.084 339.584 272.305C339.535 272.526 339.41 272.696 339.21 272.814C339.018 272.946 338.812 272.987 338.59 272.938ZM336.317 272.434C336.084 272.383 335.903 272.255 335.774 272.053C335.654 271.863 335.618 271.658 335.667 271.437C335.716 271.216 335.836 271.039 336.028 270.907C336.231 270.778 336.448 270.739 336.681 270.791C336.902 270.84 337.072 270.965 337.19 271.165C337.319 271.368 337.359 271.58 337.31 271.801C337.261 272.022 337.136 272.192 336.936 272.31C336.744 272.442 336.538 272.483 336.317 272.434ZM342.72 270.475L345.015 258.551L346.359 258.849L344.065 270.773L342.72 270.475Z" fill="#ECECEC"/>
</g>
</g>
<path d="M239.625 264.873L238.875 264.869L238.879 264.119L238.891 261.937C238.894 261.514 238.765 261.182 238.508 260.899C238.254 260.619 237.98 260.5 237.649 260.499C237.624 260.498 237.608 260.499 237.599 260.5C237.598 260.5 237.597 260.5 237.597 260.5L237.567 260.506L237.527 260.511C237.221 260.542 236.971 260.676 236.748 260.961C236.514 261.259 236.393 261.604 236.391 262.026L236.379 264.105L236.375 264.855L235.625 264.851L235.125 264.848L234.375 264.844L234.379 264.094L234.391 261.912C234.393 261.571 234.289 261.304 234.078 261.071C233.867 260.839 233.653 260.749 233.398 260.747C233.361 260.747 233.292 260.752 233.181 260.767C232.981 260.816 232.808 260.928 232.649 261.15C232.477 261.391 232.393 261.651 232.391 261.952L232.379 264.083L232.375 264.833L231.625 264.828L231.125 264.826L230.375 264.821L230.379 264.071L230.382 263.526C230.384 263.185 230.28 262.918 230.068 262.684C229.858 262.453 229.643 262.363 229.389 262.361C229.108 262.36 228.895 262.453 228.701 262.673C228.496 262.904 228.384 263.187 228.382 263.566L228.358 267.759C228.356 268.169 228.4 268.544 228.485 268.887L228.487 268.897L228.49 268.906L230.133 276.338C230.25 276.811 230.305 277.309 230.302 277.827L230.3 278.253C230.299 278.363 230.328 278.437 230.398 278.514C230.466 278.589 230.505 278.595 230.548 278.595L240.547 278.651C240.59 278.652 240.629 278.646 240.698 278.572C240.769 278.496 240.799 278.422 240.799 278.312C240.804 277.446 241.059 276.675 241.618 276.071L241.624 276.065L241.63 276.059L246.496 271.047C246.733 270.789 246.843 270.506 246.845 270.164L246.867 266.346C246.869 266.005 246.765 265.738 246.553 265.504C246.343 265.272 246.128 265.183 245.873 265.181C245.592 265.18 245.38 265.273 245.186 265.492C244.98 265.724 244.868 266.007 244.866 266.386L244.85 269.318L244.848 269.623L244.633 269.841L244.13 270.349L242.837 271.657L242.847 269.818L242.888 262.505C242.89 262.164 242.786 261.897 242.574 261.664C242.364 261.432 242.149 261.342 241.895 261.341C241.614 261.339 241.401 261.433 241.207 261.652C241.002 261.884 240.89 262.166 240.888 262.545L240.879 264.13L240.875 264.88L240.125 264.876L239.625 264.873Z" fill="#ECECEC" stroke="#ECECEC" stroke-width="1.5"/>
</g>
<g filter="url(#filter5_d_874_27093)">
<g filter="url(#filter6_i_874_27093)">
<g clip-path="url(#clip4_874_27093)">
<rect width="323" height="51.691" rx="8" transform="matrix(-0.978148 -0.207912 -0.207912 0.978148 400.666 170.508)" fill="#C96346"/>
<g clip-path="url(#clip5_874_27093)">
<path d="M372.653 189.851C372.379 189.742 372.128 189.58 371.917 189.374C371.705 189.168 371.535 188.922 371.418 188.651C371.301 188.38 371.239 188.088 371.235 187.793C371.23 187.497 371.284 187.204 371.393 186.929C371.503 186.655 371.665 186.404 371.871 186.192C372.076 185.98 372.322 185.811 372.593 185.694C372.865 185.577 373.156 185.515 373.452 185.51C373.747 185.506 374.041 185.56 374.315 185.669C374.87 185.889 375.314 186.321 375.55 186.869C375.787 187.417 375.796 188.036 375.575 188.591C375.355 189.146 374.923 189.59 374.375 189.826C373.827 190.062 373.208 190.071 372.653 189.851Z" fill="white"/>
<path d="M358.324 195.456C358.03 196.196 358.042 197.022 358.357 197.752C358.672 198.483 359.265 199.058 360.004 199.352L371.156 203.784C371.895 204.077 372.721 204.065 373.452 203.75C374.182 203.435 374.758 202.843 375.052 202.103L381.699 185.376C381.993 184.636 381.981 183.811 381.666 183.08C381.351 182.349 380.758 181.774 380.019 181.48L372.352 178.433L363.586 182.214L358.324 195.456ZM379.465 182.874C379.834 183.021 380.131 183.309 380.288 183.674C380.446 184.039 380.452 184.452 380.305 184.822L374.765 198.762L372.897 194.429C372.831 194.276 372.715 194.149 372.569 194.069C372.422 193.989 372.253 193.96 372.088 193.987L368.35 194.598L367.016 189.193C366.989 189.088 366.941 188.989 366.873 188.904C366.804 188.819 366.719 188.75 366.621 188.702C366.524 188.653 366.417 188.627 366.308 188.624C366.199 188.621 366.091 188.641 365.991 188.685L361.934 190.434L364.98 182.767L367.768 183.875C368.323 184.096 368.942 184.087 369.49 183.85C370.038 183.614 370.47 183.17 370.69 182.615L371.798 179.827L379.465 182.874Z" fill="white"/>
</g>
<path d="M230.445 158.016L231.773 158.31L231.464 159.704L231.53 159.719C231.872 159.226 232.281 158.898 232.758 158.737C233.248 158.567 233.792 158.548 234.389 158.681C234.921 158.799 235.379 159.01 235.764 159.316C236.148 159.622 236.447 160.002 236.66 160.455C236.884 160.911 237.012 161.433 237.045 162.021C237.088 162.611 237.034 163.249 236.882 163.935C236.73 164.621 236.509 165.222 236.221 165.738C235.943 166.257 235.607 166.676 235.211 166.995C234.826 167.316 234.395 167.533 233.917 167.648C233.439 167.763 232.934 167.761 232.403 167.643C231.241 167.386 230.523 166.67 230.25 165.495L230.184 165.48L229.139 170.193L227.811 169.899L230.445 158.016ZM232.303 166.367C233.055 166.534 233.699 166.433 234.233 166.064C234.77 165.684 235.123 165.112 235.292 164.349L235.616 162.888C235.785 162.125 235.706 161.463 235.377 160.902C235.051 160.331 234.512 159.962 233.759 159.795C233.461 159.729 233.163 159.709 232.867 159.736C232.584 159.755 232.327 159.814 232.096 159.914C231.865 160.014 231.666 160.155 231.497 160.338C231.342 160.513 231.239 160.716 231.188 160.949L230.482 164.135C230.42 164.412 230.42 164.673 230.482 164.919C230.557 165.156 230.677 165.374 230.842 165.574C231.009 165.761 231.217 165.924 231.465 166.06C231.725 166.199 232.004 166.301 232.303 166.367ZM238.174 168.714L240.073 160.149L241.4 160.444L241.091 161.838L241.158 161.853C241.476 161.412 241.855 161.09 242.295 160.886C242.746 160.684 243.292 160.654 243.934 160.796C244.819 160.993 245.453 161.435 245.834 162.123C246.229 162.803 246.311 163.662 246.081 164.702L244.863 170.196L243.535 169.902L244.701 164.641C245.042 163.102 244.566 162.19 243.271 161.903C243.005 161.844 242.738 161.82 242.469 161.83C242.211 161.842 241.967 161.893 241.739 161.981C241.51 162.07 241.312 162.206 241.143 162.389C240.989 162.564 240.88 162.789 240.819 163.066L239.502 169.008L238.174 168.714ZM254.618 173.351C254.422 174.236 253.93 174.806 253.142 175.061C252.362 175.329 251.281 175.31 249.898 175.004C248.559 174.707 247.637 174.311 247.132 173.816C246.626 173.321 246.448 172.736 246.598 172.061C246.701 171.596 246.904 171.258 247.206 171.046C247.506 170.846 247.879 170.731 248.327 170.703L248.367 170.52C247.912 170.164 247.746 169.709 247.869 169.156C247.964 168.724 248.175 168.429 248.501 168.269C248.829 168.098 249.221 168.004 249.677 167.989L249.692 167.923C249.236 167.567 248.915 167.13 248.728 166.613C248.552 166.098 248.53 165.541 248.663 164.944C248.758 164.512 248.924 164.131 249.16 163.8C249.396 163.47 249.68 163.208 250.013 163.014C250.36 162.813 250.743 162.683 251.162 162.625C251.592 162.569 252.051 162.595 252.537 162.703C253.146 162.838 253.664 163.069 254.09 163.396L254.124 163.246C254.197 162.914 254.335 162.66 254.536 162.485C254.74 162.298 255.019 162.243 255.373 162.322L256.651 162.605L256.394 163.767L254.767 163.406L254.646 163.954C254.897 164.288 255.063 164.662 255.146 165.075C255.242 165.479 255.239 165.914 255.136 166.379C255.04 166.81 254.874 167.191 254.638 167.522C254.403 167.853 254.111 168.119 253.765 168.321C253.432 168.514 253.05 168.639 252.62 168.694C252.19 168.75 251.731 168.723 251.244 168.616C250.968 168.554 250.697 168.465 250.433 168.349C250.128 168.362 249.842 168.421 249.576 168.524C249.311 168.617 249.15 168.796 249.091 169.061C249.035 169.316 249.118 169.514 249.342 169.657C249.566 169.799 249.871 169.913 250.259 169.999L252.084 170.404C253.147 170.639 253.87 171.014 254.255 171.529C254.654 172.035 254.775 172.643 254.618 173.351ZM253.351 173.174C253.427 172.831 253.355 172.525 253.136 172.256C252.926 172.001 252.489 171.799 251.825 171.652L248.97 171.019C248.385 171.145 248.034 171.474 247.916 172.005C247.833 172.381 247.9 172.732 248.118 173.059C248.347 173.389 248.799 173.628 249.473 173.778L250.702 174.05C251.443 174.214 252.044 174.225 252.505 174.084C252.966 173.942 253.248 173.639 253.351 173.174ZM251.48 167.553C252.044 167.678 252.522 167.645 252.913 167.453C253.306 167.25 253.565 166.866 253.69 166.302L253.793 165.837C253.918 165.273 253.844 164.821 253.571 164.482C253.3 164.132 252.883 163.894 252.319 163.769C251.754 163.644 251.276 163.683 250.882 163.886C250.491 164.078 250.234 164.456 250.108 165.021L250.005 165.485C249.88 166.05 249.953 166.507 250.224 166.857C250.497 167.196 250.916 167.428 251.48 167.553ZM254.178 176.301L253.977 174.932C254.843 174.846 255.58 174.69 256.187 174.465C256.805 174.242 257.312 173.971 257.708 173.653C258.115 173.336 258.429 172.994 258.65 172.625C258.873 172.245 259.027 171.867 259.11 171.491C259.23 170.949 259.23 170.374 259.109 169.767C259.002 169.151 258.86 168.562 258.682 168L260.03 167.655C260.154 168.089 260.252 168.511 260.324 168.921C260.406 169.334 260.472 169.72 260.52 170.079C260.579 170.441 260.617 170.768 260.633 171.062C260.682 171.572 260.809 171.943 261.013 172.174C261.231 172.396 261.556 172.555 261.987 172.651C262.22 172.702 262.371 172.805 262.441 172.96C262.525 173.107 262.547 173.268 262.508 173.445C262.468 173.622 262.354 173.771 262.165 173.892C261.978 174.001 261.763 174.029 261.52 173.975C261.033 173.867 260.653 173.696 260.38 173.461C260.12 173.218 259.944 172.941 259.85 172.63C259.759 172.308 259.72 171.986 259.733 171.664L260.198 172.08C260.036 172.81 259.723 173.438 259.259 173.961C258.803 174.499 258.272 174.933 257.665 175.262C257.055 175.603 256.442 175.856 255.825 176.021C255.208 176.186 254.659 176.279 254.178 176.301ZM259.341 165.5C259.109 165.448 258.927 165.327 258.795 165.135C258.677 164.935 258.642 164.724 258.691 164.503C258.74 164.281 258.861 164.105 259.052 163.973C259.255 163.844 259.473 163.805 259.705 163.857C259.926 163.906 260.096 164.03 260.214 164.231C260.343 164.433 260.384 164.645 260.334 164.867C260.285 165.088 260.16 165.263 259.957 165.392C259.768 165.513 259.562 165.549 259.341 165.5ZM261.528 173.977L261.995 172.653C262.659 172.8 263.298 172.877 263.911 172.886C264.527 172.883 265.102 172.83 265.635 172.728C266.182 172.617 266.663 172.463 267.079 172.264C267.497 172.055 267.833 171.822 268.087 171.565C268.355 171.299 268.522 171.017 268.588 170.718C268.62 170.575 268.602 170.42 268.534 170.254C268.469 170.077 268.326 169.911 268.104 169.758C267.894 169.607 267.59 169.487 267.191 169.399C266.948 169.345 266.67 169.318 266.356 169.318C266.043 169.318 265.734 169.349 265.431 169.409C265.14 169.461 264.891 169.539 264.682 169.644C264.927 169.953 265.151 170.253 265.354 170.541C265.568 170.833 265.782 171.147 265.998 171.485C266.216 171.812 266.447 172.182 266.692 172.597C266.904 172.841 267.151 173.064 267.431 173.265C267.723 173.469 268.041 173.656 268.387 173.825C268.746 173.986 269.114 174.132 269.492 174.262C269.872 174.381 270.255 174.483 270.642 174.569C270.875 174.621 271.026 174.724 271.096 174.879C271.18 175.025 271.202 175.187 271.163 175.364C271.124 175.541 271.009 175.689 270.82 175.81C270.633 175.92 270.418 175.947 270.175 175.893C269.566 175.758 268.953 175.565 268.336 175.312C267.732 175.05 267.18 174.742 266.678 174.387C266.179 174.021 265.776 173.612 265.469 173.161C265.335 172.876 265.179 172.586 265.001 172.291C264.822 171.996 264.622 171.697 264.399 171.392C264.19 171.079 263.955 170.777 263.694 170.487C263.64 170.417 263.596 170.303 263.561 170.144C263.527 169.985 263.504 169.824 263.495 169.659C263.485 169.494 263.488 169.373 263.505 169.296C263.542 169.13 263.691 168.954 263.953 168.768C264.215 168.582 264.546 168.424 264.947 168.292C265.35 168.149 265.794 168.056 266.28 168.013C266.765 167.969 267.252 168.002 267.738 168.11C268.369 168.249 268.857 168.456 269.203 168.73C269.559 169.007 269.793 169.314 269.904 169.652C270.028 169.981 270.054 170.312 269.98 170.644C269.872 171.131 269.643 171.591 269.291 172.023C268.942 172.445 268.495 172.816 267.948 173.136C267.401 173.456 266.786 173.714 266.104 173.912C265.425 174.098 264.693 174.202 263.91 174.226C263.141 174.241 262.346 174.158 261.528 173.977ZM270.183 175.895L270.65 174.571C270.927 174.632 271.231 174.7 271.563 174.773C271.909 174.838 272.254 174.903 272.6 174.968C272.956 175.036 273.288 175.086 273.594 175.119C273.902 175.141 274.163 175.141 274.377 175.118C274.808 175.063 275.157 174.954 275.424 174.793C275.695 174.621 275.913 174.368 276.08 174.033C276.261 173.69 276.414 173.236 276.539 172.672C276.642 172.207 276.677 171.762 276.643 171.337C276.61 170.912 276.509 170.553 276.342 170.26C276.175 169.968 275.936 169.787 275.626 169.719C275.372 169.662 275.117 169.71 274.863 169.863C274.622 170.007 274.408 170.215 274.22 170.487C274.043 170.761 273.921 171.047 273.855 171.346C273.804 171.578 273.804 171.787 273.856 171.973C273.918 172.161 274.049 172.329 274.249 172.478C274.45 172.616 274.728 172.724 275.082 172.802C275.403 172.873 275.731 172.911 276.067 172.916C276.414 172.923 276.715 172.897 276.972 172.838L276.781 174.014C276.577 174.097 276.356 174.152 276.117 174.181C275.879 174.209 275.634 174.213 275.384 174.192C275.133 174.171 274.886 174.134 274.642 174.08C274.078 173.955 273.616 173.76 273.257 173.495C272.912 173.221 272.668 172.905 272.526 172.549C272.398 172.184 272.38 171.797 272.47 171.387C272.564 170.967 272.723 170.561 272.949 170.17C273.178 169.768 273.453 169.417 273.775 169.117C274.097 168.817 274.452 168.599 274.842 168.465C275.234 168.32 275.64 168.294 276.061 168.387C276.658 168.52 277.108 168.822 277.409 169.295C277.722 169.771 277.902 170.345 277.95 171.017C278.012 171.681 277.966 172.362 277.811 173.059C277.627 173.889 277.325 174.57 276.905 175.104C276.499 175.629 275.926 176.013 275.187 176.256C274.901 176.343 274.564 176.396 274.177 176.415C273.803 176.425 273.395 176.41 272.951 176.369C272.518 176.331 272.068 176.267 271.601 176.175C271.131 176.094 270.659 176.001 270.183 175.895ZM276.124 166.608C275.892 166.556 275.71 166.435 275.578 166.243C275.46 166.043 275.426 165.832 275.475 165.611C275.524 165.389 275.644 165.213 275.836 165.081C276.039 164.952 276.256 164.913 276.489 164.965C276.71 165.014 276.88 165.138 276.998 165.339C277.127 165.541 277.167 165.753 277.118 165.975C277.069 166.196 276.943 166.371 276.74 166.5C276.551 166.621 276.346 166.657 276.124 166.608ZM281.476 176.97C282.029 177.093 282.479 177.135 282.824 177.095C283.181 177.058 283.454 176.95 283.645 176.772C283.849 176.585 283.982 176.348 284.046 176.06C284.095 175.839 284.093 175.56 284.04 175.223C283.998 174.888 283.919 174.511 283.804 174.091C283.69 173.659 283.547 173.204 283.375 172.725C283.216 172.237 283.036 171.738 282.836 171.23L284.146 170.737C284.433 171.485 284.672 172.188 284.863 172.846C285.056 173.492 285.207 174.094 285.316 174.652C285.427 175.199 285.5 175.709 285.534 176.181C285.581 176.702 285.673 177.1 285.81 177.374C285.957 177.65 286.129 177.845 286.324 177.958C286.522 178.06 286.71 178.13 286.887 178.17C287.119 178.221 287.276 178.326 287.357 178.483C287.441 178.629 287.463 178.791 287.424 178.968C287.385 179.145 287.27 179.294 287.081 179.414C286.894 179.524 286.679 179.551 286.436 179.498C286.071 179.417 285.726 179.27 285.401 179.059C285.09 178.839 284.842 178.546 284.656 178.18C284.472 177.803 284.39 177.338 284.408 176.784L285.19 176.4C285.091 176.843 284.902 177.254 284.62 177.632C284.342 178 283.924 178.262 283.367 178.417C282.821 178.574 282.089 178.552 281.171 178.348C280.773 178.26 280.393 178.141 280.031 177.991C279.681 177.844 279.364 177.675 279.081 177.484C278.801 177.283 278.564 177.068 278.371 176.839L279.289 175.841C279.478 176.034 279.757 176.241 280.126 176.462C280.495 176.683 280.945 176.853 281.476 176.97ZM286.44 179.498L286.891 178.17C287.521 178.31 287.977 178.348 288.259 178.282C288.54 178.217 288.732 178.033 288.834 177.731C288.947 177.431 289.054 177.001 289.154 176.443L290.711 167.925L292.056 168.223L290.548 176.596C290.44 177.187 290.303 177.702 290.136 178.141C289.98 178.582 289.752 178.932 289.451 179.191C289.161 179.451 288.772 179.609 288.284 179.663C287.807 179.72 287.192 179.665 286.44 179.498ZM292.296 180.709L294.591 168.785L295.935 169.083L293.641 181.007L292.296 180.709ZM294.615 184.096L294.873 182.935L303.254 184.792L302.997 185.954L294.615 184.096ZM304.603 183.454C304.662 183.189 304.747 182.912 304.857 182.623C304.981 182.325 305.131 182.016 305.306 181.695C305.496 181.365 305.711 181.024 305.951 180.671L307.043 181.401C306.864 181.686 306.699 181.957 306.55 182.214C306.411 182.474 306.292 182.72 306.194 182.954C306.107 183.19 306.039 183.419 305.99 183.64C305.872 184.171 305.909 184.661 306.099 185.109C306.301 185.561 306.628 185.946 307.079 186.267C307.53 186.588 308.088 186.821 308.752 186.969C309.56 187.148 310.249 187.179 310.821 187.061C311.403 186.947 311.891 186.683 312.284 186.271C312.689 185.862 313.022 185.303 313.283 184.595C313.547 183.875 313.773 183.014 313.96 182.011L315.532 173.427L316.909 173.732L315.227 182.658C315.085 183.404 314.894 184.11 314.653 184.777C314.426 185.434 314.134 186.02 313.776 186.532C313.416 187.056 312.985 187.483 312.483 187.813C311.978 188.154 311.39 188.372 310.718 188.467C310.047 188.562 309.275 188.512 308.401 188.318C307.814 188.188 307.261 187.985 306.742 187.707C306.224 187.43 305.777 187.087 305.403 186.679C305.029 186.271 304.764 185.794 304.606 185.249C304.457 184.716 304.456 184.118 304.603 183.454ZM320.46 187.039C319.575 186.843 318.917 186.592 318.485 186.288C318.065 185.985 317.812 185.604 317.729 185.145C317.645 184.685 317.665 184.121 317.79 183.452L319.471 174.3L320.832 174.601L319.269 183.223C319.171 183.77 319.128 184.201 319.139 184.517C319.164 184.824 319.308 185.065 319.571 185.24C319.845 185.417 320.297 185.575 320.928 185.715C321.16 185.766 321.312 185.869 321.382 186.024C321.466 186.17 321.488 186.332 321.449 186.509C321.409 186.686 321.295 186.835 321.106 186.955C320.919 187.065 320.704 187.093 320.46 187.039ZM336.211 190.53C335.924 190.466 335.565 190.358 335.134 190.204C334.718 190.042 334.3 189.833 333.88 189.578C333.472 189.325 333.144 189.026 332.895 188.68L334.407 188.302C334.76 188.542 335.135 188.736 335.532 188.882C335.943 189.019 336.325 189.127 336.679 189.206C336.911 189.257 337.063 189.36 337.133 189.515C337.217 189.662 337.239 189.823 337.2 190C337.16 190.177 337.046 190.326 336.857 190.447C336.67 190.556 336.455 190.584 336.211 190.53ZM328.446 189.035C327.472 188.819 326.662 188.599 326.015 188.374C325.377 188.163 324.869 187.941 324.492 187.706C324.114 187.471 323.845 187.22 323.684 186.952C323.523 186.684 323.438 186.387 323.429 186.06L323.84 186.012C323.446 186.482 323.061 186.803 322.686 186.975C322.314 187.136 321.943 187.211 321.575 187.199C321.219 187.178 320.848 187.125 320.461 187.039L320.928 185.715C321.316 185.801 321.643 185.815 321.911 185.758C322.19 185.704 322.435 185.567 322.647 185.347C322.869 185.129 323.088 184.824 323.303 184.43C323.517 184.037 323.766 183.546 324.047 182.958L325.188 183.542C325.066 183.782 324.951 184.012 324.844 184.232C324.737 184.452 324.648 184.647 324.575 184.817C324.516 184.978 324.476 185.108 324.454 185.208C324.395 185.473 324.405 185.713 324.485 185.928C324.568 186.132 324.767 186.333 325.083 186.531C325.402 186.718 325.876 186.91 326.505 187.107C327.148 187.296 327.995 187.507 329.046 187.74C329.777 187.902 330.439 188.003 331.034 188.042C331.629 188.081 332.14 188.055 332.566 187.963C333.007 187.864 333.361 187.704 333.63 187.485C333.899 187.266 334.072 186.985 334.148 186.642C334.202 186.399 334.194 186.147 334.123 185.888C334.056 185.618 333.913 185.371 333.695 185.149C333.478 184.927 333.158 184.769 332.738 184.676C332.207 184.558 331.645 184.578 331.053 184.737C330.471 184.899 329.896 185.137 329.327 185.452C328.772 185.758 328.264 186.087 327.803 186.437C327.342 186.788 326.965 187.099 326.673 187.371L325.24 187.001C325.722 186.504 326.272 186.011 326.891 185.521C327.524 185.023 328.19 184.585 328.89 184.206C329.602 183.818 330.319 183.542 331.041 183.377C331.765 183.2 332.464 183.187 333.139 183.337C333.748 183.472 334.24 183.714 334.615 184.064C335.003 184.406 335.267 184.812 335.406 185.284C335.557 185.759 335.573 186.262 335.455 186.793C335.311 187.446 334.983 188.006 334.473 188.473C333.977 188.932 333.238 189.227 332.257 189.358C331.277 189.488 330.006 189.381 328.446 189.035ZM336.215 190.531L336.683 189.207C337.336 189.351 337.849 189.442 338.224 189.479C338.602 189.504 338.89 189.435 339.089 189.27C339.291 189.094 339.44 188.785 339.538 188.342C339.6 188.065 339.628 187.729 339.623 187.333C339.62 186.926 339.595 186.491 339.546 186.028C339.498 185.565 339.438 185.104 339.365 184.647L340.82 184.447C340.885 184.833 340.928 185.266 340.949 185.747C340.982 186.23 340.993 186.703 340.983 187.165C340.974 187.627 340.932 188.024 340.859 188.356C340.736 188.909 340.554 189.362 340.314 189.715C340.084 190.071 339.782 190.335 339.407 190.507C339.032 190.679 338.578 190.764 338.044 190.762C337.522 190.762 336.912 190.685 336.215 190.531ZM338.59 194.348C338.358 194.297 338.177 194.17 338.048 193.967C337.927 193.778 337.892 193.572 337.941 193.351C337.99 193.13 338.11 192.953 338.302 192.822C338.505 192.692 338.722 192.654 338.955 192.705C339.176 192.754 339.346 192.879 339.464 193.079C339.593 193.282 339.633 193.494 339.584 193.715C339.535 193.936 339.41 194.106 339.21 194.224C339.018 194.356 338.812 194.397 338.59 194.348ZM336.317 193.844C336.084 193.793 335.903 193.666 335.774 193.463C335.654 193.274 335.618 193.068 335.667 192.847C335.716 192.626 335.836 192.449 336.028 192.318C336.231 192.188 336.448 192.15 336.681 192.201C336.902 192.25 337.072 192.375 337.19 192.575C337.319 192.778 337.359 192.99 337.31 193.211C337.261 193.432 337.136 193.602 336.936 193.72C336.744 193.852 336.538 193.893 336.317 193.844ZM342.72 191.885L345.015 179.961L346.359 180.259L344.065 192.183L342.72 191.885Z" fill="#ECECEC"/>
</g>
</g>
</g>
<rect width="323" height="47" rx="8" transform="matrix(-0.978148 -0.207912 -0.207912 0.978148 402.023 235.59)" fill="#9A9AA2" fill-opacity="0.09" style="mix-blend-mode:multiply"/>
<rect x="-0.59303" y="0.385118" width="322" height="46" rx="7.5" transform="matrix(-0.978148 -0.207912 -0.207912 0.978148 400.93 235.475)" stroke="#ACACAC" stroke-opacity="0.2" stroke-dasharray="8 8" style="mix-blend-mode:luminosity"/>
<rect x="-0.59303" y="0.385118" width="322" height="46" rx="7.5" transform="matrix(-0.978148 -0.207912 -0.207912 0.978148 400.93 235.475)" stroke="#D5D5D5" stroke-opacity="0.3" stroke-dasharray="8 8" style="mix-blend-mode:multiply"/>
<rect x="-0.59303" y="0.385118" width="322" height="46" rx="7.5" transform="matrix(-0.978148 -0.207912 -0.207912 0.978148 400.93 235.475)" stroke="url(#paint3_radial_874_27093)" stroke-opacity="0.25" stroke-dasharray="8 8" style="mix-blend-mode:overlay"/>
</g>
<rect x="-0.5" y="0.5" width="354" height="284" rx="23.5" transform="matrix(-1 0 0 1 415.666 43.5)" stroke="#D2D2D2" stroke-opacity="0.2" style="mix-blend-mode:luminosity"/>
<rect x="-0.5" y="0.5" width="354" height="284" rx="23.5" transform="matrix(-1 0 0 1 415.666 43.5)" stroke="#C96346" stroke-opacity="0.45" style="mix-blend-mode:multiply"/>
<rect x="-0.5" y="0.5" width="354" height="284" rx="23.5" transform="matrix(-1 0 0 1 415.666 43.5)" stroke="url(#paint4_radial_874_27093)" stroke-opacity="0.8" style="mix-blend-mode:soft-light"/>
</g>
<defs>
<filter id="filter0_bd_874_27093" x="-179.5" y="-190" width="837.333" height="752" filterUnits="userSpaceOnUse" color-interpolation-filters="sRGB">
<feFlood flood-opacity="0" result="BackgroundImageFix"/>
<feGaussianBlur in="BackgroundImageFix" stdDeviation="100"/>
<feComposite in2="SourceAlpha" operator="in" result="effect1_backgroundBlur_874_27093"/>
<feColorMatrix in="SourceAlpha" type="matrix" values="0 0 0 0 0 0 0 0 0 0 0 0 0 0 0 0 0 0 127 0" result="hardAlpha"/>
<feOffset dy="10"/>
<feGaussianBlur stdDeviation="10"/>
<feComposite in2="hardAlpha" operator="out"/>
<feColorMatrix type="matrix" values="0 0 0 0 0 0 0 0 0 0 0 0 0 0 0 0 0 0 0.35 0"/>
<feBlend mode="normal" in2="effect1_backgroundBlur_874_27093" result="effect2_dropShadow_874_27093"/>
<feBlend mode="normal" in="SourceGraphic" in2="effect2_dropShadow_874_27093" result="shape"/>
</filter>
<filter id="filter1_d_874_27093" x="44.6465" y="170.09" width="386.02" height="174.568" filterUnits="userSpaceOnUse" color-interpolation-filters="sRGB">
<feFlood flood-opacity="0" result="BackgroundImageFix"/>
<feColorMatrix in="SourceAlpha" type="matrix" values="0 0 0 0 0 0 0 0 0 0 0 0 0 0 0 0 0 0 127 0" result="hardAlpha"/>
<feOffset dy="15"/>
<feGaussianBlur stdDeviation="15"/>
<feComposite in2="hardAlpha" operator="out"/>
<feColorMatrix type="matrix" values="0 0 0 0 0 0 0 0 0 0 0 0 0 0 0 0 0 0 0.25 0"/>
<feBlend mode="normal" in2="BackgroundImageFix" result="effect1_dropShadow_874_27093"/>
<feBlend mode="normal" in="SourceGraphic" in2="effect1_dropShadow_874_27093" result="shape"/>
</filter>
<filter id="filter2_i_874_27093" x="74.6465" y="185.09" width="326.02" height="116.568" filterUnits="userSpaceOnUse" color-interpolation-filters="sRGB">
<feFlood flood-opacity="0" result="BackgroundImageFix"/>
<feBlend mode="normal" in="SourceGraphic" in2="BackgroundImageFix" result="shape"/>
<feColorMatrix in="SourceAlpha" type="matrix" values="0 0 0 0 0 0 0 0 0 0 0 0 0 0 0 0 0 0 127 0" result="hardAlpha"/>
<feOffset dy="2"/>
<feGaussianBlur stdDeviation="2"/>
<feComposite in2="hardAlpha" operator="arithmetic" k2="-1" k3="1"/>
<feColorMatrix type="matrix" values="0 0 0 0 0 0 0 0 0 0 0 0 0 0 0 0 0 0 0.25 0"/>
<feBlend mode="normal" in2="shape" result="effect1_innerShadow_874_27093"/>
</filter>
<filter id="filter3_d_874_27093" x="43.9775" y="166.941" width="386.688" height="177.717" filterUnits="userSpaceOnUse" color-interpolation-filters="sRGB">
<feFlood flood-opacity="0" result="BackgroundImageFix"/>
<feColorMatrix in="SourceAlpha" type="matrix" values="0 0 0 0 0 0 0 0 0 0 0 0 0 0 0 0 0 0 127 0" result="hardAlpha"/>
<feOffset dy="15"/>
<feGaussianBlur stdDeviation="15"/>
<feComposite in2="hardAlpha" operator="out"/>
<feColorMatrix type="matrix" values="0 0 0 0 0 0 0 0 0 0 0 0 0 0 0 0 0 0 0.25 0"/>
<feBlend mode="normal" in2="BackgroundImageFix" result="effect1_dropShadow_874_27093"/>
<feBlend mode="normal" in="SourceGraphic" in2="effect1_dropShadow_874_27093" result="shape"/>
</filter>
<filter id="filter4_i_874_27093" x="73.9775" y="181.941" width="326.688" height="119.717" filterUnits="userSpaceOnUse" color-interpolation-filters="sRGB">
<feFlood flood-opacity="0" result="BackgroundImageFix"/>
<feBlend mode="normal" in="SourceGraphic" in2="BackgroundImageFix" result="shape"/>
<feColorMatrix in="SourceAlpha" type="matrix" values="0 0 0 0 0 0 0 0 0 0 0 0 0 0 0 0 0 0 127 0" result="hardAlpha"/>
<feOffset dy="2"/>
<feGaussianBlur stdDeviation="2"/>
<feComposite in2="hardAlpha" operator="arithmetic" k2="-1" k3="1"/>
<feColorMatrix type="matrix" values="0 0 0 0 0 0 0 0 0 0 0 0 0 0 0 0 0 0 0.25 0"/>
<feBlend mode="normal" in2="shape" result="effect1_innerShadow_874_27093"/>
</filter>
<filter id="filter5_d_874_27093" x="43.9775" y="88.3516" width="386.688" height="177.717" filterUnits="userSpaceOnUse" color-interpolation-filters="sRGB">
<feFlood flood-opacity="0" result="BackgroundImageFix"/>
<feColorMatrix in="SourceAlpha" type="matrix" values="0 0 0 0 0 0 0 0 0 0 0 0 0 0 0 0 0 0 127 0" result="hardAlpha"/>
<feOffset dy="15"/>
<feGaussianBlur stdDeviation="15"/>
<feComposite in2="hardAlpha" operator="out"/>
<feColorMatrix type="matrix" values="0 0 0 0 0 0 0 0 0 0 0 0 0 0 0 0 0 0 0.25 0"/>
<feBlend mode="normal" in2="BackgroundImageFix" result="effect1_dropShadow_874_27093"/>
<feBlend mode="normal" in="SourceGraphic" in2="effect1_dropShadow_874_27093" result="shape"/>
</filter>
<filter id="filter6_i_874_27093" x="73.9775" y="103.352" width="326.688" height="119.717" filterUnits="userSpaceOnUse" color-interpolation-filters="sRGB">
<feFlood flood-opacity="0" result="BackgroundImageFix"/>
<feBlend mode="normal" in="SourceGraphic" in2="BackgroundImageFix" result="shape"/>
<feColorMatrix in="SourceAlpha" type="matrix" values="0 0 0 0 0 0 0 0 0 0 0 0 0 0 0 0 0 0 127 0" result="hardAlpha"/>
<feOffset dy="2"/>
<feGaussianBlur stdDeviation="2"/>
<feComposite in2="hardAlpha" operator="arithmetic" k2="-1" k3="1"/>
<feColorMatrix type="matrix" values="0 0 0 0 0 0 0 0 0 0 0 0 0 0 0 0 0 0 0.25 0"/>
<feBlend mode="normal" in2="shape" result="effect1_innerShadow_874_27093"/>
</filter>
<radialGradient id="paint0_radial_874_27093" cx="0" cy="0" r="1" gradientUnits="userSpaceOnUse" gradientTransform="translate(218.667 273.122) rotate(90) scale(339.659 635.49)">
<stop stop-color="#C96346"/>
<stop offset="1" stop-color="white" stop-opacity="0"/>
</radialGradient>
<linearGradient id="paint1_linear_874_27093" x1="218.667" y1="352" x2="187.254" y2="2.826" gradientUnits="userSpaceOnUse">
<stop stop-color="white" stop-opacity="0.19"/>
<stop offset="1" stop-color="#C96346"/>
</linearGradient>
<radialGradient id="paint2_radial_874_27093" cx="0" cy="0" r="1" gradientUnits="userSpaceOnUse" gradientTransform="translate(214.525 210.096) rotate(90.224) scale(177.365 220.929)">
<stop stop-color="#FFFEFE"/>
<stop offset="1" stop-color="white" stop-opacity="0"/>
</radialGradient>
<radialGradient id="paint3_radial_874_27093" cx="0" cy="0" r="1" gradientUnits="userSpaceOnUse" gradientTransform="translate(195.188 34.6474) rotate(91.2356) scale(29.2563 200.969)">
<stop stop-color="#FFFEFE"/>
<stop offset="1" stop-color="white" stop-opacity="0"/>
</radialGradient>
<radialGradient id="paint4_radial_874_27093" cx="0" cy="0" r="1" gradientUnits="userSpaceOnUse" gradientTransform="translate(177.5 221.136) rotate(90) scale(275.008 515.851)">
<stop stop-color="#C96346"/>
<stop offset="1" stop-color="white" stop-opacity="0"/>
</radialGradient>
<clipPath id="clip0_874_27093">
<rect width="355" height="285" rx="24" transform="matrix(-1 0 0 1 416.666 43.5)" fill="white"/>
</clipPath>
<clipPath id="clip1_874_27093">
<rect width="323" height="48.4723" rx="8" transform="matrix(-0.978148 -0.207912 -0.207912 0.978148 400.666 252.246)" fill="white"/>
</clipPath>
<clipPath id="clip2_874_27093">
<rect width="323" height="51.691" rx="8" transform="matrix(-0.978148 -0.207912 -0.207912 0.978148 400.666 249.098)" fill="white"/>
</clipPath>
<clipPath id="clip3_874_27093">
<rect width="24" height="24" fill="white" transform="matrix(-0.929314 -0.369291 -0.369291 0.929314 385.595 262.285)"/>
</clipPath>
<clipPath id="clip4_874_27093">
<rect width="323" height="51.691" rx="8" transform="matrix(-0.978148 -0.207912 -0.207912 0.978148 400.666 170.508)" fill="white"/>
</clipPath>
<clipPath id="clip5_874_27093">
<rect width="24" height="24" fill="white" transform="matrix(-0.929314 -0.369291 -0.369291 0.929314 385.595 183.695)"/>
</clipPath>
</defs>
</svg>
